<svg width="72" height="72" viewBox="0 0 72 72" fill="none" xmlns="http://www.w3.org/2000/svg">
<circle cx="36" cy="36" r="36" fill="#E7FAF4"/>
<g clip-path="url(#clip0_817_11707)">
<path d="M52.25 51H19.75C17.6822 51 16 49.3179 16 47.25V41C16 40.309 16.5591 39.75 17.25 39.75C19.3179 39.75 21 38.0678 21 36C21 33.9321 19.3179 32.2499 17.25 32.2499C16.5591 32.25 16 31.6909 16 31V24.75C16 22.6821 17.6822 20.9999 19.75 20.9999H52.2501C54.3179 20.9999 56.0001 22.6821 56.0001 24.75V31C56.0001 31.6909 55.441 32.25 54.7501 32.25C52.6822 32.25 51.0001 33.9322 51.0001 36C51.0001 38.0679 52.6822 39.7501 54.7501 39.7501C55.441 39.7501 56.0001 40.3091 56.0001 41.0001V47.2501C56 49.3179 54.3179 51 52.25 51V51ZM18.5 42.1243V47.25C18.5 47.9397 19.0603 48.5 19.75 48.5H52.2501C52.9397 48.5 53.5001 47.9397 53.5001 47.25V42.1243C50.651 41.5432 48.5 39.0188 48.5 36C48.5 32.9811 50.6509 30.4568 53.5001 29.8756V24.75C53.5001 24.0603 52.9397 23.5 52.2501 23.5H19.75C19.0603 23.5 18.5 24.0603 18.5 24.75V29.8757C21.3491 30.4568 23.5 32.9812 23.5 36C23.5 39.0189 21.3491 41.5432 18.5 42.1243V42.1243Z" fill="#42CEA6"/>
<path d="M31.0803 45.5439L38.5777 25.551L40.9185 26.4288L33.4211 46.4217L31.0803 45.5439Z" fill="#42CEA6"/>
<path d="M30.0867 36.4208C28.0188 36.4208 26.3367 34.7387 26.3367 32.6708C26.3367 30.6029 28.0188 28.9208 30.0867 28.9208C32.1546 28.9208 33.8367 30.6029 33.8367 32.6708C33.8367 34.7387 32.1546 36.4208 30.0867 36.4208ZM30.0867 31.4208C29.397 31.4208 28.8367 31.9811 28.8367 32.6708C28.8367 33.3605 29.397 33.9208 30.0867 33.9208C30.7764 33.9208 31.3367 33.3605 31.3367 32.6708C31.3367 31.9811 30.7764 31.4208 30.0867 31.4208Z" fill="#42CEA6"/>
<path d="M43.0073 44.1733C40.9395 44.1733 39.2573 42.4911 39.2573 40.4232C39.2573 38.3554 40.9395 36.6732 43.0073 36.6732C45.0752 36.6732 46.7574 38.3554 46.7574 40.4232C46.7574 42.4911 45.0752 44.1733 43.0073 44.1733V44.1733ZM43.0073 39.1732C42.3177 39.1732 41.7573 39.7336 41.7573 40.4232C41.7573 41.1129 42.3177 41.6733 43.0073 41.6733C43.697 41.6733 44.2574 41.1129 44.2574 40.4232C44.2574 39.7336 43.697 39.1732 43.0073 39.1732Z" fill="#42CEA6"/>
</g>
<defs>
<clipPath id="clip0_817_11707">
<rect width="40" height="40" fill="white" transform="translate(16 16)"/>
</clipPath>
</defs>
</svg>
