<svg width="24" height="24" viewBox="0 0 24 24" fill="none" xmlns="http://www.w3.org/2000/svg">
<path d="M19.9637 5.36999C18.9583 4.26068 17.5595 3.58768 16.0653 3.49429C14.5711 3.4009 13.0994 3.8945 11.9637 4.86999C10.828 3.8945 9.35632 3.4009 7.86209 3.49429C6.36787 3.58768 4.96912 4.26068 3.9637 5.36999C2.97073 6.49668 2.44823 7.9616 2.50405 9.46236C2.55988 10.9631 3.18977 12.3852 4.2637 13.435L11.6137 20.775C11.7074 20.8681 11.8341 20.9204 11.9662 20.9204C12.0983 20.9204 12.225 20.8681 12.3187 20.775L19.6587 13.435C20.7322 12.3852 21.3623 10.9637 21.419 9.46329C21.4757 7.96287 20.9549 6.49784 19.9637 5.36999ZM18.6087 12.37L11.9687 19L5.3287 12.37C4.53495 11.6055 4.06056 10.5684 4.00118 9.46799C3.9418 8.36753 4.30183 7.28549 5.0087 6.43999C5.74335 5.59725 6.7808 5.07834 7.89576 4.99596C9.01072 4.91358 10.1132 5.27437 10.9637 5.99999C11.0563 6.06969 11.1432 6.14659 11.2237 6.22999C11.3487 6.35999 11.4687 6.49499 11.5787 6.63499C11.6256 6.69249 11.6847 6.73884 11.7517 6.77067C11.8187 6.80249 11.892 6.81901 11.9662 6.81901C12.0404 6.81901 12.1137 6.80249 12.1807 6.77067C12.2477 6.73884 12.3068 6.69249 12.3537 6.63499C12.4655 6.49293 12.5857 6.35769 12.7137 6.22999C12.7942 6.14659 12.8811 6.06969 12.9737 5.99999C13.8204 5.27902 14.9164 4.91955 16.0257 4.99905C17.1349 5.07854 18.1685 5.59064 18.9037 6.42499C19.617 7.26886 19.9833 8.35207 19.9285 9.45566C19.8738 10.5592 19.402 11.6009 18.6087 12.37Z" fill="#9397AB"/>
</svg>
