<svg width="24" height="24" viewBox="0 0 24 24" fill="none" xmlns="http://www.w3.org/2000/svg">
<path d="M21.6742 11.6226L12.6953 2.64365C12.2857 2.23633 11.7314 2.00774 11.1538 2.00793H3.09652C2.8057 2.00793 2.5268 2.1235 2.32116 2.32914C2.11551 2.53478 2 2.81366 2 3.10448V11.1617C2.00068 11.7431 2.23218 12.3004 2.64362 12.7112L11.6226 21.6901C11.8278 21.8929 12.1048 22.0067 12.3933 22.0067C12.6819 22.0067 12.9588 21.8929 13.1641 21.6901L21.6742 13.18C21.777 13.078 21.8587 12.9568 21.9143 12.8231C21.97 12.6895 21.9987 12.5461 21.9987 12.4013C21.9987 12.2565 21.97 12.1131 21.9143 11.9795C21.8587 11.8458 21.777 11.7245 21.6742 11.6226ZM9.52484 9.53279C9.28822 9.77355 8.98528 9.93846 8.65463 10.0065C8.32398 10.0745 7.98056 10.0425 7.66812 9.91471C7.35569 9.78688 7.08838 9.56892 6.90023 9.28865C6.71207 9.00837 6.61159 8.67847 6.61159 8.34089C6.61159 8.00332 6.71207 7.67336 6.90023 7.39309C7.08838 7.11282 7.35569 6.8949 7.66812 6.76707C7.98056 6.63925 8.32398 6.6073 8.65463 6.67532C8.98528 6.74333 9.28822 6.90823 9.52484 7.149C9.83548 7.46798 10.0093 7.89564 10.0093 8.34089C10.0093 8.78614 9.83548 9.2138 9.52484 9.53279Z" fill="#E98000"/>
</svg>
