<svg xmlns="http://www.w3.org/2000/svg" viewBox="0 0 230.62 60"><defs><style>.cls-1{fill:#fff;}</style></defs><g id="Capa_2" data-name="Capa 2"><g id="Capa_1-2" data-name="Capa 1"><path class="cls-1" d="M157.72,46.39l13.81-17.14h.26l45-.17,13.8,17.25Zm14.33-16.07L160,45.32l68.41-.06-12.07-15.1Z"/><path class="cls-1" d="M174.24,25.88,185.43,12h17.9l10.21,13.8ZM186,13.09,176.49,24.8l34.92-.05-8.62-11.66Z"/><path class="cls-1" d="M108.1,13.34V9.1H98.63v2.65h-5.5V4.27h20.48V33.56h-15v4.3h9.48V35.09h5.49v7.52H93.11v-24h-4v9.78h2.69v5.19H84.3V13.34Zm0,15V18.55H98.65v9.79Z"/><path class="cls-1" d="M114.93,18.54h4.36v15h-4.36Z"/><path class="cls-1" d="M108,58.49c-.71,0-1.4,0-2.08,0-.11,0-.26-.15-.32-.27l-3.41-6.46a.76.76,0,0,0-.1-.13v6.84h-1.91c0-.15,0-.3,0-.45,0-2.84,0-5.67,0-8.51,0-.37.08-.52.48-.5a15.14,15.14,0,0,0,1.65,0,.55.55,0,0,1,.58.34q1.59,3.06,3.2,6.1a.3.3,0,0,0,0,.07V49H108Z"/><path class="cls-1" d="M87.29,58.49c-.75,0-1.44,0-2.12,0-.1,0-.24-.16-.28-.28-.23-.69-.43-1.4-.65-2.12H81.53c-.19.69-.4,1.37-.57,2.06-.07.27-.18.38-.47.37-.59,0-1.18,0-1.85,0,.32-1,.61-2,.9-2.94.62-2,1.25-4.1,1.86-6.15.09-.29.2-.42.53-.41.69,0,1.38,0,2.07,0,.23,0,.36,0,.44.28C85.37,52.32,86.32,55.36,87.29,58.49Zm-4.44-7.81-1,3.74h2Z"/><path class="cls-1" d="M125.31,58.49c-.76,0-1.45,0-2.13,0-.1,0-.24-.17-.28-.28-.23-.7-.43-1.4-.65-2.12h-2.7c-.2.69-.41,1.38-.58,2.07a.4.4,0,0,1-.47.36c-.59,0-1.19,0-1.84,0,.38-1.25.74-2.43,1.09-3.61.56-1.82,1.12-3.63,1.65-5.45A.51.51,0,0,1,120,49c.67,0,1.35,0,2,0a.82.82,0,0,1,.41.25c.06.05.06.17.09.25Zm-4.45-7.8-1,3.71h2Z"/><path class="cls-1" d="M115.65,49v1.75H112v1.93h3.44v1.76H112v2.24h3.85v1.75h-6V49Z"/><path class="cls-1" d="M94.31,49.28l-.47,1.66c-.7-.11-1.36-.23-2-.31a1.5,1.5,0,0,0-.59.07.87.87,0,0,0-.74.72.82.82,0,0,0,.52.89c.39.2.81.36,1.21.55a8.78,8.78,0,0,1,1.19.59,2.66,2.66,0,0,1-.22,4.67,5.75,5.75,0,0,1-4.77,0,.42.42,0,0,1-.18-.34c.1-.5.23-1,.35-1.44.64.16,1.25.35,1.88.45a3.64,3.64,0,0,0,1.23-.06.87.87,0,0,0,.76-.75.89.89,0,0,0-.5-1c-.37-.2-.78-.33-1.16-.53a8.49,8.49,0,0,1-1.59-.9,2.49,2.49,0,0,1,.12-4,4.55,4.55,0,0,1,3.38-.69A14.53,14.53,0,0,1,94.31,49.28Z"/><path class="cls-1" d="M96.15,49h2.09v9.44H96.15Z"/><path class="cls-1" d="M119.32,13.36v4.38h-4.39V13.36Z"/><polygon class="cls-1" points="35.35 18.34 35.26 18.28 35.09 18.53 35.18 18.59 35.35 18.34"/><polygon class="cls-1" points="35.32 19.19 35.61 19.27 35.63 19.17 35.35 19.09 35.32 19.19"/><polygon class="cls-1" points="34.34 19.2 34.31 19.1 34.03 19.18 34.06 19.28 34.34 19.2"/><polygon class="cls-1" points="34.57 18.54 34.4 18.28 34.32 18.34 34.49 18.59 34.57 18.54"/><path class="cls-1" d="M23.76,59.35c.88.27,2.32.65,2.32.65s1.44-.37,2.31-.62a14.35,14.35,0,0,0,1.83-.69H22A15.5,15.5,0,0,0,23.76,59.35Z"/><path class="cls-1" d="M26.43,56.77v0a.26.26,0,0,1-.11.21l-.16.15h.28v.06h.14v-.16h-.23l.1-.1a.29.29,0,0,0,.12-.24.25.25,0,0,0-.27-.25h0a.25.25,0,0,0-.24.12.25.25,0,0,1,.12,0A.23.23,0,0,1,26.43,56.77Z"/><path class="cls-1" d="M26.93,57.08a.28.28,0,0,1-.2-.08l0,.16.11,0A.12.12,0,0,0,26.93,57.08Z"/><path class="cls-1" d="M25.65,56.59a.06.06,0,0,1,.05.06.16.16,0,0,1,0,.09.14.14,0,0,1-.1.14l-.07,0,0,0h0a.1.1,0,0,1,.09.07.17.17,0,0,1,.05.12.17.17,0,0,1-.08.14A.24.24,0,0,0,25.9,57a.21.21,0,0,0-.14-.19.16.16,0,0,0,.11-.16.21.21,0,0,0-.22-.21h0a.27.27,0,0,0-.23.12.22.22,0,0,1,.11,0A.32.32,0,0,1,25.65,56.59Z"/><path class="cls-1" d="M27.1,57v0a.26.26,0,0,1-.09.18.35.35,0,0,0,.14-.06.25.25,0,0,0,.09-.19.24.24,0,0,0-.23-.26h-.08v0H26.8l0,.13h.09A.23.23,0,0,1,27.1,57Z"/><path class="cls-1" d="M26.22,56.71v0h0a.1.1,0,0,0-.1.07h.14Z"/><polygon class="cls-1" points="25.05 57.22 25.2 57.22 25.2 56.49 24.91 56.49 24.91 56.59 25.05 56.59 25.05 57.22"/><path class="cls-1" d="M25.51,56.85a.1.1,0,0,0,.1-.1.08.08,0,0,1-.06-.08v0h0a.11.11,0,0,0-.11.1h0a.16.16,0,0,0,.1.08l0,0Z"/><polygon class="cls-1" points="27.04 56.65 27.19 56.65 27.19 56.49 26.81 56.49 26.8 56.59 27.04 56.59 27.04 56.65"/><path class="cls-1" d="M25.45,56.91l0,0a.05.05,0,0,0,0,0h0Z"/><path class="cls-1" d="M25.54,57a0,0,0,0,1,0,0h0a.11.11,0,0,0-.11.11.1.1,0,0,0,.09.11h0a.12.12,0,0,0,.11-.09A.09.09,0,0,1,25.54,57Z"/><path class="cls-1" d="M21.82,54.93l0,0a.1.1,0,0,1,.05,0l.06-.14a.33.33,0,0,0-.19-.06.21.21,0,0,0-.17.08h.07A.46.46,0,0,1,21.82,54.93Z"/><polygon class="cls-1" points="21.07 55.34 21.07 55.12 20.87 54.82 20.71 54.82 20.71 54.9 20.78 54.9 21.07 55.34"/><path class="cls-1" d="M31.76,54.93l0,0,.05,0,.07-.15a.46.46,0,0,0-.2,0,.18.18,0,0,0-.16.08h.07A.41.41,0,0,1,31.76,54.93Z"/><polygon class="cls-1" points="20.78 55.55 20.87 55.55 20.87 55.32 20.78 55.18 20.78 55.55"/><path class="cls-1" d="M31.73,55.1h0a.12.12,0,0,1-.07-.05h0a.07.07,0,0,0-.07.07h0a.09.09,0,0,0,.07.06l0,0a.19.19,0,0,1,.15.2.25.25,0,0,1,0,.17l.08,0a.25.25,0,0,0,.06-.2A.19.19,0,0,0,31.73,55.1Z"/><polygon class="cls-1" points="20.43 55.55 20.53 55.55 20.53 54.82 20.37 54.82 20.37 54.9 20.43 54.9 20.43 55.55"/><polygon class="cls-1" points="22.68 55.55 22.78 55.55 22.78 54.82 22.62 54.82 22.62 54.9 22.68 54.9 22.68 55.55"/><polygon class="cls-1" points="28.6 55.34 28.5 55.34 28.5 55.46 28.69 55.46 28.69 55.55 28.79 55.55 28.79 55.39 28.6 55.39 28.6 55.34"/><polygon class="cls-1" points="28.5 55.06 28.5 55.18 28.68 55.18 28.68 55.26 28.78 55.26 28.78 55.1 28.6 55.1 28.6 55.06 28.5 55.06"/><polygon class="cls-1" points="28.69 54.98 28.79 54.98 28.79 54.82 28.44 54.82 28.44 54.9 28.69 54.9 28.69 54.98"/><polygon class="cls-1" points="29.33 55.34 29.33 55.12 29.13 54.82 28.97 54.82 28.97 54.9 29.03 54.9 29.33 55.34"/><polygon class="cls-1" points="29.03 55.55 29.13 55.55 29.13 55.32 29.03 55.18 29.03 55.55"/><path class="cls-1" d="M27.66,55.46h0a.16.16,0,0,0,.13-.08v.18l.1,0v-.23a.22.22,0,0,1-.14.08.18.18,0,0,1-.17-.18v0a.24.24,0,0,1,0-.12.18.18,0,0,0-.12.19A.17.17,0,0,0,27.66,55.46Z"/><polygon class="cls-1" points="28.15 55.55 28.25 55.55 28.25 54.82 28.09 54.82 28.09 54.9 28.15 54.9 28.15 55.55"/><path class="cls-1" d="M27.81,54.91V55a.16.16,0,0,1,.1.08v-.23a.4.4,0,0,0-.15,0,.28.28,0,0,0-.22.1.28.28,0,0,1,.13,0A.32.32,0,0,1,27.81,54.91Z"/><polygon class="cls-1" points="29.48 55.55 29.58 55.55 29.58 54.82 29.42 54.82 29.42 54.9 29.48 54.9 29.48 55.55"/><polygon class="cls-1" points="30.94 55.28 30.94 55.25 30.9 55.12 30.84 55.35 30.97 55.35 30.94 55.28"/><polygon class="cls-1" points="30.87 55.5 30.8 55.5 30.78 55.55 30.85 55.55 30.87 55.5"/><polygon class="cls-1" points="31.2 55.55 31.32 55.55 31.09 54.82 30.92 54.82 30.89 54.9 31 54.9 31.2 55.55"/><path class="cls-1" d="M31.62,55.41h0a.25.25,0,0,1-.12-.08l-.05.11a.11.11,0,0,0,.09,0A.08.08,0,0,0,31.62,55.41Z"/><path class="cls-1" d="M30,55.46h0a.16.16,0,0,0,.14-.08v.18l.1,0v-.23a.22.22,0,0,1-.14.08.18.18,0,0,1-.17-.18v0a.13.13,0,0,1,0-.12.17.17,0,0,0-.13.19A.17.17,0,0,0,30,55.46Z"/><polygon class="cls-1" points="26.83 54.98 26.93 54.98 26.93 54.82 26.57 54.82 26.57 54.9 26.83 54.9 26.83 54.98"/><polygon class="cls-1" points="30.45 55.55 30.55 55.55 30.55 54.82 30.39 54.82 30.39 54.9 30.45 54.9 30.45 55.55"/><path class="cls-1" d="M30.11,54.91V55a.16.16,0,0,1,.1.08v-.23a.4.4,0,0,0-.15,0,.28.28,0,0,0-.22.1.28.28,0,0,1,.13,0A.32.32,0,0,1,30.11,54.91Z"/><rect class="cls-1" x="22.25" y="55.06" width="0.1" height="0.49"/><polygon class="cls-1" points="24.48 54.98 24.57 54.98 24.57 54.82 24.15 54.82 24.15 54.9 24.48 54.9 24.48 54.98"/><rect class="cls-1" x="24.34" y="55.06" width="0.09" height="0.49"/><path class="cls-1" d="M23.92,55.3a.39.39,0,0,1-.06.24.15.15,0,0,0,.09-.06.36.36,0,0,0,.06-.25v-.41h-.16v.08h.07Z"/><path class="cls-1" d="M26,55.39v-.33s0,0-.06,0h0v.4h0a.18.18,0,0,0,.15-.08H26Z"/><path class="cls-1" d="M25.26,55.24h0a.38.38,0,0,1-.1.29.38.38,0,0,0,.2-.36A.36.36,0,0,0,25,54.8a.35.35,0,0,0-.24.1.34.34,0,0,1,.48.34Z"/><path class="cls-1" d="M24.92,55.47a.22.22,0,0,0,.14-.08h0a.2.2,0,0,1-.17-.21.27.27,0,0,1,0-.12.22.22,0,0,0,0,.41Z"/><path class="cls-1" d="M23.54,55.28c0,.1,0,.2.11.2a.09.09,0,0,0,.09-.08c-.1,0-.1-.1-.1-.19v-.39h-.16v.08h.06Z"/><path class="cls-1" d="M21.68,55.41h0a.35.35,0,0,1-.13-.08l-.05.11a.13.13,0,0,0,.1,0A.08.08,0,0,0,21.68,55.41Z"/><path class="cls-1" d="M21.79,55.1h0a.12.12,0,0,1-.07-.05h0a.07.07,0,0,0-.07.07.09.09,0,0,0,.07.06l0,0a.19.19,0,0,1,.15.2.25.25,0,0,1,0,.17l.08,0a.3.3,0,0,0,.06-.2A.2.2,0,0,0,21.79,55.1Z"/><rect class="cls-1" x="23.11" y="55.06" width="0.1" height="0.49"/><polygon class="cls-1" points="23.24 54.98 23.34 54.98 23.34 54.82 22.91 54.82 22.91 54.9 23.24 54.9 23.24 54.98"/><polygon class="cls-1" points="21.23 55.55 21.32 55.55 21.32 54.82 21.17 54.82 21.17 54.9 21.23 54.9 21.23 55.55"/><polygon class="cls-1" points="22.38 54.98 22.47 54.98 22.47 54.82 22.05 54.82 22.05 54.9 22.38 54.9 22.38 54.98"/><path class="cls-1" d="M26.32,55.26a.41.41,0,0,1-.09.26.36.36,0,0,0,.19-.33.35.35,0,0,0-.31-.37h-.23v.08H26A.32.32,0,0,1,26.32,55.26Z"/><polygon class="cls-1" points="26.73 55.34 26.64 55.34 26.64 55.46 26.83 55.46 26.83 55.55 26.93 55.55 26.93 55.39 26.73 55.39 26.73 55.34"/><polygon class="cls-1" points="26.64 55.06 26.64 55.18 26.82 55.18 26.82 55.26 26.92 55.26 26.92 55.1 26.73 55.1 26.73 55.06 26.64 55.06"/><path class="cls-1" d="M29.82,52.94a0,0,0,0,0-.06,0h0a0,0,0,0,0,0,.06s0,0,.05,0h0S29.84,52.94,29.82,52.94Z"/><path class="cls-1" d="M22.4,53.1s0,0,0,0h0a.06.06,0,0,0,0,.06h0s0,0,.05,0a0,0,0,0,0,0-.06Z"/><path class="cls-1" d="M23.33,52.92h0l0,0s0,0,0,0a0,0,0,0,0,0,0h0Z"/><path class="cls-1" d="M32.27,52.85h0s0,0,0,0h0s0,0,0,0,0,0,0,0h0S32.29,52.85,32.27,52.85Z"/><path class="cls-1" d="M19.74,52.87h0a.05.05,0,0,0,0,0h0a0,0,0,1,0,.06,0A.05.05,0,0,0,19.72,52.91Z"/><path class="cls-1" d="M22.46,52.75s0,0,0,0,0,0,0,0h0s0,0,0,0S22.48,52.74,22.46,52.75Z"/><path class="cls-1" d="M21.75,52.65s0,0,0,0h0s0,0,0,0,0,0,0,0h0S21.78,52.65,21.75,52.65Z"/><path class="cls-1" d="M28.85,52.72h0s0,0,0,0,0,0,0,0h0s0,0,0,0h0S28.87,52.73,28.85,52.72Z"/><path class="cls-1" d="M20.53,52.77a.11.11,0,0,0,0,.14.11.11,0,0,0,0-.08S20.54,52.76,20.53,52.77Z"/><path class="cls-1" d="M21.36,53.05s-.05,0-.05,0,0,0,0,0a.08.08,0,0,0,.05,0,.06.06,0,0,0,0-.07S21.38,53.05,21.36,53.05Z"/><path class="cls-1" d="M30.53,53h0s0,0,0,0,0,0,0,0,0,0,.05,0A0,0,0,0,0,30.53,53Z"/><path class="cls-1" d="M29.71,52.61s0,0,0,0,0,0,0,0a0,0,0,0,0,0,0h0s0,0,0,0Z"/><path class="cls-1" d="M19.75,52.41a.07.07,0,0,0-.05-.08h0a.07.07,0,0,0,0,.05.06.06,0,0,0,.05.08A.07.07,0,0,0,19.75,52.41Z"/><path class="cls-1" d="M20,51.87s0,0,0,0,0,0,0,0a.08.08,0,0,0,0,0S20,51.86,20,51.87Z"/><path class="cls-1" d="M19.4,51.52h0l0,0h0a0,0,0,0,0,0,0h0a0,0,0,0,0,0,0A0,0,0,0,0,19.4,51.52Z"/><path class="cls-1" d="M33.67,51.61a.07.07,0,0,0,0,.1s0,0,0-.05S33.7,51.62,33.67,51.61Z"/><path class="cls-1" d="M17.28,51.48s0,0,0,0a.05.05,0,0,0,.05,0s.05,0,.05,0S17.31,51.47,17.28,51.48Z"/><path class="cls-1" d="M19.06,51.79s0,0,0,0,0,0,0,0a0,0,0,0,0,0,.05s0,0,0-.05S19.07,51.8,19.06,51.79Z"/><path class="cls-1" d="M20.87,51.53h0a0,0,0,0,0,0,0,0,0,0,0,0,0,0s0,0,0,0S20.89,51.54,20.87,51.53Z"/><path class="cls-1" d="M21,52.43a0,0,0,0,0,0,0s0,0,.06,0,0,0,.05,0A.06.06,0,0,0,21,52.43Z"/><path class="cls-1" d="M21.8,52.23a0,0,0,0,0-.05,0h0a.05.05,0,0,0,0,0h0a.05.05,0,0,0,.05,0h0a0,0,0,0,0,0-.05Z"/><path class="cls-1" d="M20.82,52s0,0,0,0,0,0,0,0h0s0,0,0,0h0S20.83,51.94,20.82,52Z"/><path class="cls-1" d="M29.91,52s0,0,0,0a0,0,0,0,0,0,0h0s0,0,0,0h0a0,0,0,0,0,0,0Z"/><path class="cls-1" d="M20.58,51.52s0,0-.06,0a.08.08,0,0,0,.12,0S20.6,51.51,20.58,51.52Z"/><path class="cls-1" d="M20.56,52.36a0,0,0,1,0-.06,0s0,0,.05,0A.06.06,0,0,0,20.56,52.36Z"/><path class="cls-1" d="M34.18,51.39h-.07l0,0a.05.05,0,0,0,0,0,.06.06,0,0,0,.06,0Z"/><path class="cls-1" d="M22.34,52.43h0a.05.05,0,0,0-.05,0,0,0,0,0,0,0,.06.05.05,0,0,0,.05,0h0A0,0,0,0,0,22.34,52.43Z"/><path class="cls-1" d="M31.35,51.81h0s0,0,0,0h0a0,0,0,0,0,0,0l0,0S31.37,51.81,31.35,51.81Z"/><path class="cls-1" d="M22.89,52.7s0,0,0,0,0,0,0,0h0v0s0,0,.05,0a0,0,0,0,0,0-.06Z"/><path class="cls-1" d="M31.64,51.41s0,0,0,0h-.09s0,0,0,0,0,0,.06,0A.05.05,0,0,0,31.64,51.41Z"/><path class="cls-1" d="M18.49,51.74a.07.07,0,0,0,0,.06.05.05,0,0,0,0,.05s0,0,0-.05S18.51,51.75,18.49,51.74Z"/><path class="cls-1" d="M31.12,52.29a0,0,0,0,0-.06,0,.07.07,0,0,0,0,.05.09.09,0,0,0,.07,0S31.15,52.29,31.12,52.29Z"/><path class="cls-1" d="M30.66,52.61s0,0,0,0,0,0,0,0h0s0,0,0,0,0,0,0,0Z"/><path class="cls-1" d="M31.61,52.22s0,0,0,.05,0,0,0,0,0,0,0,0a.06.06,0,0,0,0-.06S31.61,52.2,31.61,52.22Z"/><path class="cls-1" d="M32.19,51.77a0,0,0,1,0-.06,0h0s0,0,0,0Z"/><path class="cls-1" d="M32.16,52.34a0,0,0,0,0,0,0s0,0,0,.05,0,0,0,0a0,0,0,0,0,0,0A0,0,0,0,0,32.2,52.38Z"/><path class="cls-1" d="M18.83,52.38l0,0a0,0,0,0,0,0,0s0,0,0,0A0,0,0,0,0,18.83,52.38Z"/><path class="cls-1" d="M31.59,52.69h0s0,.06,0,.07a.1.1,0,0,0,.05-.06h0a.06.06,0,0,0,0-.07A.05.05,0,0,0,31.59,52.69Z"/><path class="cls-1" d="M32.86,51.92a.05.05,0,0,0,0,0s0,0,0,0a0,0,0,0,0,.06,0A.06.06,0,0,0,32.86,51.92Z"/><path class="cls-1" d="M33.34,52.25s0,0,0,0h0a0,0,0,0,0,0,0h0s0,0,0,0S33.35,52.25,33.34,52.25Z"/><path class="cls-1" d="M30.42,52.08s0,0-.05,0h0s0,0,0,0h0a0,0,0,0,0,.06,0S30.45,52.08,30.42,52.08Z"/><path class="cls-1" d="M18,51.52s0,0-.05,0a.05.05,0,0,0,.05,0,0,0,0,1,0,0-.06Z"/><path class="cls-1" d="M30.37,52.55a.06.06,0,0,0,0,.06.07.07,0,0,0,.05,0h0a.07.07,0,0,0,0-.06A0,0,0,0,0,30.37,52.55Z"/><path class="cls-1" d="M17,50.45a0,0,0,0,0,0,0,0,0,0,0,0,0,0h0a0,0,0,0,0,0,0h0A0,0,0,0,0,17,50.45Z"/><path class="cls-1" d="M18.94,50.87a0,0,0,1,0,0,.06.05.05,0,0,0,0-.06A.05.05,0,0,0,18.94,50.87Z"/><path class="cls-1" d="M17.43,51a0,0,0,0,0,0,.05s0,0,0,0a.05.05,0,0,0,0,0S17.45,51,17.43,51Z"/><path class="cls-1" d="M16.84,51.1a0,0,0,0,0,0,.06s0,0,0,0,0,0,0-.06S16.85,51.11,16.84,51.1Z"/><path class="cls-1" d="M17.7,50.62s0,.05,0,.07a0,0,0,0,0,0,0,0,0,0,0,0,0-.06Z"/><path class="cls-1" d="M16,50.37h0l0,0a0,0,0,0,0,0,0h0s0,0,0,0S16,50.37,16,50.37Z"/><path class="cls-1" d="M18,50.78a0,0,0,0,0,0,.06,0,0,0,0,0,0,.06,0,0,0,0,0,0-.06A0,0,0,0,0,18,50.78Z"/><path class="cls-1" d="M33.55,51.14a.1.1,0,0,0,0,.14.06.06,0,0,0,0-.07A.06.06,0,0,0,33.55,51.14Z"/><path class="cls-1" d="M18.62,51.28a.06.06,0,0,0,0,.07s0,0,0,0h0s0,0,0,0,0,0,0,0h0v0A.06.06,0,0,0,18.62,51.28Z"/><path class="cls-1" d="M32.06,51.33a0,0,0,0,0,0,0s0,0,0,0l0,0S32.07,51.33,32.06,51.33Z"/><path class="cls-1" d="M32.88,51.28s0,0,0,0a0,0,0,0,0,0,0,0,0,0,0,0,0,0h0S32.86,51.29,32.88,51.28Z"/><path class="cls-1" d="M19.62,51.24s0,0,0,0,0,0,0,0,0,0,0,0,0,0,0,0Z"/><path class="cls-1" d="M36.15,50.23a0,0,0,0,0,0,0,0,0,0,0,0,0,0h0s0,0,0,0S36.17,50.23,36.15,50.23Z"/><path class="cls-1" d="M32.55,51a0,0,0,0,0,0,0s0,0,0,0h0l.05,0A.07.07,0,0,0,32.55,51Z"/><path class="cls-1" d="M35.77,50.51a.08.08,0,0,0,0,.06.05.05,0,0,0,0,.06,0,0,0,0,0,0-.06S35.79,50.52,35.77,50.51Z"/><path class="cls-1" d="M31.16,51.22s0,0,0,0a0,0,0,0,0,0,0h0l0,0h0S31.18,51.22,31.16,51.22Z"/><path class="cls-1" d="M33.19,50.73a0,0,0,0,0,0,0s0,0,0,0a0,0,0,0,0,0-.06Z"/><path class="cls-1" d="M34.23,50.65s0,0,0,0a0,0,0,0,0,0,0,.06.06,0,0,0,0,.06s0,0,0-.06A0,0,0,0,0,34.23,50.65Z"/><path class="cls-1" d="M20.05,51.19s0,0,0,0,0,0,0,0h0s0,0,0,0h0A0,0,0,0,0,20.05,51.19Z"/><path class="cls-1" d="M34.74,50.9a.06.06,0,1,0,0,.05A.05.05,0,0,0,34.74,50.9Z"/><path class="cls-1" d="M35.33,51s0,0,0,0a0,0,0,0,0,0,.05,0,0,0,0,0,0-.05A0,0,0,0,0,35.33,51Z"/><path class="cls-1" d="M34.87,51.34s0,0,0,0h0a0,0,0,0,0,0,0s0,0,.05,0h0S34.89,51.33,34.87,51.34Z"/><path class="cls-1" d="M37.07,46.81a1.6,1.6,0,0,1-.1-.52v-.18h-.84v.17a1.36,1.36,0,0,1-.11.53,1.92,1.92,0,0,1-.25.47l-.27.4h2.09l-.27-.4A3,3,0,0,1,37.07,46.81Zm-.85-.52V46.2h.65v.09a.62.62,0,0,0,0,.13h-.67c0-.05,0-.1,0-.14Zm0,.19h.69c0,.07,0,.14.06.22h-.81A.86.86,0,0,0,36.2,46.48Zm-.09.33a0,0,0,0,0,0,0H37s0,0,0,0a1.67,1.67,0,0,0,.08.2H36A1.76,1.76,0,0,0,36.11,46.81Zm-.12.27H37.1a1.76,1.76,0,0,0,.14.23H35.86A1.86,1.86,0,0,0,36,47.08Zm-.32.5.14-.21h1.47l.15.21Z"/><path class="cls-1" d="M15.85,46.81a1.61,1.61,0,0,1-.11-.52v-.18h-.83v.17a1.57,1.57,0,0,1-.11.53,2.64,2.64,0,0,1-.25.47l-.27.4h2.09l-.27-.4A3,3,0,0,1,15.85,46.81ZM15,46.28V46.2h.65v.09a.57.57,0,0,0,0,.13H15C15,46.37,15,46.33,15,46.28Zm0,.2h.69a1.74,1.74,0,0,0,.05.22h-.8A.86.86,0,0,0,15,46.48Zm-.09.33s0,0,0,0h.85a0,0,0,0,0,0,0,1.67,1.67,0,0,0,.08.2h-1Zm-.12.27h1.1l.14.23H14.64Zm-.32.5.14-.21h1.47l.15.21Z"/><path class="cls-1" d="M28.5,48.57a.05.05,0,0,0,.05,0,.07.07,0,0,0,0-.06,0,0,0,0,0,0,0h0A0,0,0,0,0,28.5,48.57Z"/><path class="cls-1" d="M23.83,48.45s0,0,0,0,0,0,0,0h0s0,0,0,0A.08.08,0,0,0,23.83,48.45Z"/><path class="cls-1" d="M27.1,48s0,.06,0,.06,0,0,0,0a0,0,0,0,0,0-.07S27.11,48,27.1,48Z"/><path class="cls-1" d="M27.06,48.3a0,0,0,0,0-.06,0s0,0,.05,0,0,0,.05,0A0,0,0,0,0,27.06,48.3Z"/><path class="cls-1" d="M23.54,48.86s0,0,0,0h0s0,0,0,0Z"/><path class="cls-1" d="M27.74,48.85s0,0,0,0h0a0,0,0,0,0,0,0h0a0,0,0,0,0,0,0S27.72,48.85,27.74,48.85Z"/><path class="cls-1" d="M27.27,48.57a0,0,0,0,0-.06,0,0,0,0,0,0,0,0s.06,0,.07,0S27.3,48.58,27.27,48.57Z"/><path class="cls-1" d="M29.75,48.37s0,0,0,0a.05.05,0,0,0,0,0l0,0h0A0,0,0,0,0,29.75,48.37Z"/><path class="cls-1" d="M23.32,48.73a0,0,0,0,0,0,.05,0,0,0,0,0,.06,0,.06.06,0,0,0,0-.06A0,0,0,0,0,23.32,48.73Z"/><path class="cls-1" d="M27.67,48.45s0,0,0,0h0s0,0-.05,0,0,0,0,0h0S27.66,48.47,27.67,48.45Z"/><path class="cls-1" d="M23.5,48.28h-.07a.06.06,0,0,0,0,.07.07.07,0,0,0,.06,0S23.52,48.29,23.5,48.28Z"/><path class="cls-1" d="M28.26,48.44a.07.07,0,0,0,0-.06s0,0,0,0a0,0,0,0,0,0,.06S28.26,48.47,28.26,48.44Z"/><path class="cls-1" d="M28.76,48.23s0,0,0,0a0,0,0,0,0,0,0,0,0,0,0,0-.05,0A.08.08,0,0,0,28.76,48.23Z"/><path class="cls-1" d="M21.81,48.5s0,0,0,0,0,0,0,0h0a0,0,0,0,0,0,0h0s0,0,0,0Z"/><path class="cls-1" d="M23.06,48.55a0,0,0,0,0,0,0s0,0,0,0a.08.08,0,0,0,0,0S23.06,48.53,23.06,48.55Z"/><path class="cls-1" d="M28,48.79h0a0,0,0,0,0,.05,0h0a0,0,0,0,0,0-.05h0a0,0,0,0,0-.06,0h0S27.94,48.79,28,48.79Z"/><path class="cls-1" d="M22.27,48.44s0,0,0,0a0,0,0,0,0,0,.07s0,0,.06,0,0,0,0-.06S22.29,48.42,22.27,48.44Z"/><path class="cls-1" d="M29.22,48.44s0,0,0-.06a0,0,0,0,0,0,0,.06.06,0,0,0,0,.07A0,0,0,0,0,29.22,48.44Z"/><path class="cls-1" d="M22.87,48.34a0,0,0,0,0,0,.06,0,0,0,0,0,.05,0,0,0,0,0,0,0-.06A0,0,0,0,0,22.87,48.34Z"/><path class="cls-1" d="M26.73,42.1c0-.05-.08,0-.13-.15s-.13-.16-.09,0a1.85,1.85,0,0,1,0,.62c0,.17.06.27.1,0s0-.4,0-.44S26.73,42.16,26.73,42.1Z"/><path class="cls-1" d="M21.08,41.53a1,1,0,0,1,.24-.17l-.06-.13a1.45,1.45,0,0,0-.39.3Z"/><path class="cls-1" d="M26.17,32.41c.09,0,.06-.12,0-.1a.92.92,0,0,1-.33,0c-.08,0-.05.06,0,.07s0,.06.06.06a.08.08,0,0,1,.09.08v0c0,.06,0,1.73.05,1.73s.05-1.7.05-1.78S26.09,32.41,26.17,32.41Z"/><path class="cls-1" d="M26.74,32.32h-.22c-.06,0,.09.08.08.16v.25a1.48,1.48,0,0,0,.08.43,1.73,1.73,0,0,0,0-.41c0-.15,0-.21,0-.3S26.79,32.32,26.74,32.32Z"/><path class="cls-1" d="M26.29,33c0,.13,0,.24,0,.35s.06.19.06,0,0-.28,0-.38S26.29,32.86,26.29,33Z"/><polygon class="cls-1" points="25.65 28.86 25.5 28.86 25.5 29 25.71 29 25.71 29.11 25.86 29.11 25.86 28.93 25.65 28.93 25.65 28.86"/><polygon class="cls-1" points="24.27 29.11 24.27 28.34 24.27 28.3 24.09 28.3 24.09 28.34 24.09 28.37 24.12 28.37 24.12 29.11 24.27 29.11"/><polygon class="cls-1" points="25.5 28.55 25.5 28.68 25.7 28.68 25.7 28.79 25.85 28.79 25.85 28.62 25.65 28.62 25.65 28.55 25.5 28.55"/><polygon class="cls-1" points="24.44 29.11 24.59 29.11 24.59 28.34 24.59 28.3 24.41 28.3 24.41 28.34 24.41 28.37 24.44 28.37 24.44 29.11"/><path class="cls-1" d="M23,28.73v-.42h-.17v.07h0v.41c0,.11,0,.22.12.22a.1.1,0,0,0,.1-.07C23,28.91,23,28.81,23,28.73Z"/><polygon class="cls-1" points="23.62 29.11 23.77 29.11 23.77 28.91 23.62 28.68 23.62 29.11"/><polygon class="cls-1" points="24.72 28.37 24.89 28.86 24.97 28.6 24.89 28.34 24.87 28.3 24.68 28.3 24.71 28.34 24.72 28.37"/><polygon class="cls-1" points="25.71 28.48 25.86 28.48 25.86 28.37 25.86 28.34 25.86 28.3 25.48 28.3 25.48 28.34 25.48 28.37 25.71 28.37 25.71 28.48"/><path class="cls-1" d="M21.06,31.25a1.1,1.1,0,0,0,.86-.35l-.14-.09a1,1,0,0,1-.71.27.91.91,0,0,1-.78-.54l-.16.05A1.09,1.09,0,0,0,21.06,31.25Z"/><polygon class="cls-1" points="25.1 29.11 25.33 28.48 25.33 28.37 25.37 28.37 25.38 28.34 25.39 28.3 25.2 28.3 25.19 28.34 25.18 28.37 25.24 28.37 24.98 29.11 25.1 29.11"/><polygon class="cls-1" points="28.45 28.62 28.37 28.88 28.52 28.88 28.45 28.62"/><path class="cls-1" d="M28,28.77a.41.41,0,0,1-.15.33.38.38,0,0,0,.3-.4.42.42,0,0,0-.2-.36l-.14,0h-.26v.07h.11A.38.38,0,0,1,28,28.77Z"/><path class="cls-1" d="M27.76,28.58h0a.19.19,0,0,0-.1,0h0V29h0a.24.24,0,0,0,.16-.07h0Z"/><path class="cls-1" d="M29.22,28.58h0a.19.19,0,0,0-.1,0h-.05V29h0a.21.21,0,0,0,.15-.07h0Z"/><path class="cls-1" d="M29.49,28.77a.41.41,0,0,1-.15.33.38.38,0,0,0,.29-.4.39.39,0,0,0-.19-.36l-.15,0H29v.07h.11A.38.38,0,0,1,29.49,28.77Z"/><polygon class="cls-1" points="28.45 29.03 28.33 29.03 28.3 29.11 28.43 29.11 28.45 29.03"/><path class="cls-1" d="M18.79,30.33l-.09-.15a1.19,1.19,0,0,1-.52.14,1,1,0,0,1-.66-.33l-.15.09a1.19,1.19,0,0,0,.82.41A1.41,1.41,0,0,0,18.79,30.33Z"/><polygon class="cls-1" points="28.78 29.11 28.89 29.11 28.89 28.93 28.71 28.34 28.69 28.3 28.5 28.3 28.49 28.34 28.48 28.37 28.55 28.37 28.78 29.11"/><path class="cls-1" d="M26.36,28.58v0a.21.21,0,0,1-.15.22l.17.26h.1l0-.08-.16-.24a.21.21,0,0,0,.15-.23.21.21,0,0,0-.09-.2.19.19,0,0,0-.15,0H26v.06h.12A.24.24,0,0,1,26.36,28.58Z"/><polygon class="cls-1" points="27.28 29.11 27.43 29.11 27.43 28.34 27.43 28.3 27.25 28.3 27.25 28.34 27.25 28.37 27.28 28.37 27.28 29.11"/><path class="cls-1" d="M26.77,28.67l0,0a.2.2,0,0,1,.17.21.3.3,0,0,1-.08.22.24.24,0,0,0,.16-.07l.05-.07v-.26a.25.25,0,0,0-.15-.1l0,0a.13.13,0,0,1-.07-.05l-.08,0a.08.08,0,0,0-.08.07h0A.11.11,0,0,0,26.77,28.67Z"/><path class="cls-1" d="M26.8,29h0a.22.22,0,0,1-.09-.07l-.06.13.06,0A.08.08,0,0,0,26.8,29Z"/><path class="cls-1" d="M26.94,28.46a.14.14,0,0,1,.09.05l.07-.16h0a.46.46,0,0,0-.2-.05.19.19,0,0,0-.14.05v0a.36.36,0,0,1,.2.06Z"/><polygon class="cls-1" points="26.04 29.11 26.17 29.11 26.04 28.87 26.04 29.11"/><path class="cls-1" d="M26,28.53l0,.2a.1.1,0,0,0,.12-.09h0C26.18,28.54,26.11,28.53,26,28.53Z"/><path class="cls-1" d="M23.44,28.3h-.18v0h0v0h0v.45a.4.4,0,0,1-.09.3.38.38,0,0,0,.17-.08.49.49,0,0,0,.07-.28Z"/><polygon class="cls-1" points="23.77 28.3 23.59 28.3 23.59 28.34 23.59 28.37 23.62 28.37 23.94 28.86 23.94 28.57 23.79 28.34 23.77 28.3"/><polygon class="cls-1" points="32.64 23.39 32.74 23.36 32.64 23.08 32.55 23.12 32.64 23.39"/><rect class="cls-1" x="18.96" y="24.36" width="1.01" height="0.09"/><polygon class="cls-1" points="22.13 23.6 23.06 23.22 23.03 23.14 22.09 23.51 22.13 23.6"/><rect class="cls-1" x="22.26" y="24.36" width="1.01" height="0.09"/><polygon class="cls-1" points="21.95 25.27 22.45 25.71 22.71 25.94 22.77 25.86 22.59 25.71 22.01 25.2 21.95 25.27"/><polygon class="cls-1" points="19.17 23.22 20.11 23.6 20.14 23.51 19.2 23.14 19.17 23.22"/><polygon class="cls-1" points="19.46 25.86 19.52 25.94 19.78 25.71 20.29 25.27 20.23 25.2 19.64 25.71 19.46 25.86"/><polygon class="cls-1" points="34.36 20.34 34.41 20.44 34.49 20.61 34.59 20.57 34.52 20.44 34.45 20.3 34.36 20.34"/><polygon class="cls-1" points="33.96 21.23 34.25 21.19 34.24 21.09 33.95 21.13 33.96 21.23"/><polygon class="cls-1" points="35.3 20.44 35.1 20.65 35.17 20.72 35.38 20.51 35.31 20.44 35.31 20.43 35.3 20.44"/><path class="cls-1" d="M34.47,21.11l-.27.52.52-.26.41.42L35,21.21l.52-.27L35,20.85l-.07-.41,0-.17-.08.17-.18.35-.57-.09Zm.22-.21.15-.3.06.34.34,0-.31.16,0,.34-.24-.25-.3.16.15-.31-.24-.24Z"/><polygon class="cls-1" points="27.85 22.87 27.95 22.87 27.95 22.58 27.85 22.58 27.85 22.87"/><rect class="cls-1" x="34.52" y="21.68" width="0.29" height="0.1" transform="translate(7.73 52.52) rotate(-80.91)"/><polygon class="cls-1" points="35.49 21.46 35.54 21.37 35.26 21.24 35.22 21.34 35.49 21.46"/><polygon class="cls-1" points="29.71 20.73 29.99 20.65 29.96 20.56 29.68 20.64 29.71 20.73"/><rect class="cls-1" x="25.05" y="20.68" width="0.29" height="0.1" transform="translate(-4.85 8) rotate(-16.48)"/><polygon class="cls-1" points="25.8 21.35 25.9 21.35 25.9 21.06 25.8 21.06 25.8 21.35"/><rect class="cls-1" x="23.55" y="22.74" width="0.1" height="0.29"/><path class="cls-1" d="M25.29,20.44l.27.19-.19.56.48-.35.47.35-.18-.56.26-.19.21-.15H26l-.18-.55-.18.55h-.58Zm.44-.05h0l.1-.32.11.32h.34l-.06.05L26,20.6l.11.32-.28-.2-.28.2.11-.32-.22-.16-.06-.05Z"/><rect class="cls-1" x="28.14" y="21.44" width="0.3" height="0.1" transform="translate(-5.3 33.08) rotate(-56.25)"/><polygon class="cls-1" points="27.47 21.34 27.38 21.4 27.56 21.65 27.64 21.59 27.47 21.34"/><path class="cls-1" d="M27.6,22.15l-.18.55.48-.34.47.34-.18-.55.47-.35h-.58l-.18-.55-.19.55h-.58Zm.19-.24.1-.33.11.33h.34l-.28.2.11.32-.28-.2-.28.2.1-.32-.27-.2Z"/><polygon class="cls-1" points="27.13 22.34 27.41 22.26 27.38 22.16 27.1 22.24 27.13 22.34"/><rect class="cls-1" x="26.44" y="20.57" width="0.1" height="0.3" transform="translate(-0.64 40.61) rotate(-74.27)"/><polygon class="cls-1" points="22.83 22.5 23.11 22.42 23.08 22.32 22.8 22.4 22.83 22.5"/><rect class="cls-1" x="30.44" y="20.97" width="0.1" height="0.29"/><rect class="cls-1" x="20.1" y="22.02" width="0.09" height="1.01" transform="translate(-9.76 18.18) rotate(-39.92)"/><polygon class="cls-1" points="21.72 22.89 21.79 22.95 22.44 22.18 22.37 22.11 21.72 22.89"/><polygon class="cls-1" points="23.17 21.5 23.09 21.56 23.26 21.81 23.34 21.75 23.17 21.5"/><path class="cls-1" d="M23.31,22.31l-.18.55.47-.34.47.34-.18-.55.47-.34h-.58l-.18-.56-.18.56h-.58Zm.18-.25.11-.32.1.32h.35l-.28.21.1.32-.27-.2-.28.2.1-.32-.27-.21Z"/><polygon class="cls-1" points="24.04 21.5 23.86 21.75 23.95 21.81 24.12 21.56 24.04 21.5"/><polygon class="cls-1" points="24.38 22.49 24.41 22.39 24.12 22.31 24.09 22.41 24.38 22.49"/><rect class="cls-1" x="21.07" y="21.64" width="0.1" height="1.01"/><rect class="cls-1" x="32.44" y="21.9" width="0.3" height="0.1" transform="translate(3.26 48.1) rotate(-75.68)"/><polygon class="cls-1" points="31.77 22.09 31.71 22.17 31.95 22.35 32.01 22.27 31.77 22.09"/><polygon class="cls-1" points="33.23 22.6 33.23 22.5 32.93 22.53 32.94 22.63 33.23 22.6"/><path class="cls-1" d="M32.17,22.8v.58l.21-.3.12-.18.56.16-.36-.47.32-.47-.54.19-.36-.45,0,.58-.55.2Zm.08-.64.21.27.32-.11-.19.28.21.27-.34-.09-.19.28v-.34l-.33-.1.33-.11Z"/><polygon class="cls-1" points="31.73 23.07 31.79 23.14 31.88 23.07 32.02 22.97 31.96 22.89 31.72 23.06 31.73 23.07"/><rect class="cls-1" x="31.08" y="20.48" width="0.1" height="0.3" transform="translate(2.15 44.19) rotate(-72.65)"/><polygon class="cls-1" points="28.68 22.33 28.7 22.23 28.41 22.15 28.39 22.25 28.68 22.33"/><path class="cls-1" d="M30.05,20.43l.14.11-.17.55.46-.34.47.34-.17-.55.13-.11.34-.24h-.59l-.18-.55-.18.55h-.58Zm.33-.13.1-.33.1.33h.35l-.19.14-.09.06.11.33-.28-.2-.28.2.1-.33-.08-.06L30,20.3Z"/><polygon class="cls-1" points="26.28 19.83 26.11 20.08 26.2 20.13 26.36 19.88 26.28 19.83"/><path class="cls-1" d="M35,18.74l-.17-.55-.19.55h-.58l.47.35-.18.55.47-.34.47.34-.18-.55.48-.35Zm.09.64-.27-.2-.28.2.11-.33-.28-.21h.34l.11-.32.1.32h.34l-.28.21Z"/><polygon class="cls-1" points="30.05 19.73 29.97 19.8 30.14 20.04 30.23 19.99 30.05 19.73"/><polygon class="cls-1" points="34.78 19.81 34.89 19.81 34.88 19.52 34.78 19.52 34.78 19.81"/><rect class="cls-1" x="30.72" y="19.84" width="0.3" height="0.1" transform="translate(-3.02 34.03) rotate(-55.43)"/><rect class="cls-1" x="25.41" y="19.83" width="0.1" height="0.3" transform="translate(-6.78 17.12) rotate(-33.05)"/><path class="cls-1" d="M9.9,15.61V17.8h0V39.74c0,.61,0,1.21.07,1.8a21.36,21.36,0,0,0,.38,2.63h.91a16.84,16.84,0,0,1-.5-2.64,17.73,17.73,0,0,1-.09-1.79V16.38h30.9V39.67a1.64,1.64,0,0,0-1.4,1.79,1.08,1.08,0,0,0-.31.07h.68v-.06l-.24,0a1.48,1.48,0,0,1,1.27-1.63A17.59,17.59,0,0,1,41,44.17a16.67,16.67,0,0,1-1,2.64,16.88,16.88,0,0,1-.92,1.73h-.29v-.61h-.27a4.75,4.75,0,0,1-.82-1.12l-.15-.35c0-.17-.11-.44-.11-.44h.22v-.31l-.26-.28L36.59,45l-1,.53v.36h.16v.31a2.14,2.14,0,0,1-.17.66,2.67,2.67,0,0,1-.2.42l-.53.69h-.42v.6l-3.89-1.71-2-.89s-.17-.84-.34-1.75h0c-.13-.71-.26-1.46-.31-1.91a4.46,4.46,0,0,1,0-.73h-.15a1.83,1.83,0,0,0,0,.33c0,.24-.17,0-.33-.32a4.46,4.46,0,0,1-.22-.5c0-.16-.17-.2-.15-.1a2.17,2.17,0,0,0,.22.6c.25.47.57.88.58.92.06.45.17,1.1.29,1.72h0c.13.71.27,1.4.32,1.68l-1.87-.79a2.79,2.79,0,0,1,.15-.9h0c.22-.65.6-1.07.77-.77.17.13.1,0,.1,0-.25-.53-.75,0-1,.82h0a2.8,2.8,0,0,0-.14.85l-.28-.12L24,45.8a8,8,0,0,1,.28-1.63l.05-.17c.08-.31.16-.59.23-.82a3.06,3.06,0,0,0,.1-.51c0-.09,0-.66,0-1.13A3.43,3.43,0,0,1,24.7,41a2.35,2.35,0,0,0,0-.26c0-.1.26-1,.25-1.08s0-.11-.09,0-.21.87-.25.48a7.51,7.51,0,0,1-.09-1.25v-.08a12.38,12.38,0,0,1,.42-2.4c.07-.28.14-.56.21-.8.14-.54.26-1,.28-1.1a8.36,8.36,0,0,0-.15-2,.91.91,0,0,0-.11-.22.69.69,0,0,0-.19-.19L24.81,32,24.67,32a.92.92,0,0,1-.23-.25l-.14-.17-.14-.16-.23-.19a.77.77,0,0,1-.18-.18l-.18-.25a1.11,1.11,0,0,1-.12-.27,1,1,0,0,1-.05-.23,2.59,2.59,0,0,0,.42.32.3.3,0,0,1,.14.22c0,.07.15-.07.21,0a1.35,1.35,0,0,1,.15.26s0-.31.24-.1a.82.82,0,0,0,.73.24c.31,0,.52.27.8.27s.32-.21.65-.29.61,0,.8-.15a2.34,2.34,0,0,0,.48-.51,8.47,8.47,0,0,1,.66-.67h.11a2.35,2.35,0,0,1-.22.71c-.17.24-.41.66-.58.9a4,4,0,0,1-.72.55l-.06,0v.24h0c0,.69,0,2.59,0,3.16a.61.61,0,0,0,0,.14.77.77,0,0,0,0,.15,2.81,2.81,0,0,1,0,.71c-.13.36-.26.88-.13.83s0-.71.33-.72a.19.19,0,0,1,.12.15,6.66,6.66,0,0,1,.36,2.16h0a16.91,16.91,0,0,1-.1,1.74c0,.14-.06.57-.09.9h.15c0-.63.1-1.29.14-2a.63.63,0,0,1,1,.52v.11l.11,0a1.87,1.87,0,0,1,2.11,1.38,1.43,1.43,0,0,1,0,1,1.31,1.31,0,0,0-.83-.07l0,.14a1.11,1.11,0,0,1,.74.07l.08,0a1.33,1.33,0,0,1,.48,1.13h.14a1.46,1.46,0,0,0-.49-1.21A1.88,1.88,0,0,1,34,43.9l0,.21.12-.18c.26-.4,1.33-.26,1.74.24a.83.83,0,0,1,.09.16,1.72,1.72,0,0,0-1,.7l.13.08a1.64,1.64,0,0,1,2.11-.52l.08-.13a1.55,1.55,0,0,0-1.19-.17.2.2,0,0,1,0-.11c.09-.52.88-.69,1.23-.55l.14.06-.05-.15a1.18,1.18,0,0,1,1.77-1.35,1.67,1.67,0,0,0-.19.88h.14a1.27,1.27,0,0,1,1.4-1.44l0-.08h-.68a1.4,1.4,0,0,0-.61.52,1.33,1.33,0,0,0-2,1.4c-.4-.07-1.16.09-1.28.64a1.58,1.58,0,0,0-1.88-.37,2.08,2.08,0,0,0-2.7-1.3,1.83,1.83,0,0,0,0-.9A2,2,0,0,0,29.14,40a.68.68,0,0,0-.19-.45.69.69,0,0,0-.15-.67.73.73,0,0,0-.8-.07,11.8,11.8,0,0,0-.7-3.21.76.76,0,0,1,0-.15c0-.58,0-2.54,0-3.15h0v-.17a3.8,3.8,0,0,0,.77-.59c.17-.24.41-.66.57-.9A2,2,0,0,0,28.9,30a4.93,4.93,0,0,0,1.66-1,3.29,3.29,0,0,0,.48-.57,2.28,2.28,0,0,0,.37-1.59c.13.11.41,0,.55,0-.06-.07,0-.24,0-.31.24.12.48-.08.67-.05-.19-.11-.23-.34-.38-.42a1.77,1.77,0,0,0,.43-.28.57.57,0,0,0,.19-.3,1.42,1.42,0,0,1-.67.14c-.34,0-1.31-.49-1.76-.5a.61.61,0,0,0-.71.56v.11a.31.31,0,0,0,.36.24c-.06.07-.1.13-.11.41A5.42,5.42,0,0,0,30,27c0,.29.07.91-.28.9s-2.12-.39-3.38-.42l0-.18a.73.73,0,0,0,.41-.66.71.71,0,0,0-1.42-.06v.06a.73.73,0,0,0,.39.64l0,.19a21.21,21.21,0,0,0-3.37.3,1.74,1.74,0,0,0-.13-.36,2.17,2.17,0,0,0-.24-.29.25.25,0,0,0,.19-.22c0-.14-.12-.23-.3-.27a.65.65,0,0,0,0-.31c.1,0,.17-.05.17-.15s-.2-.22-.49-.23a1,1,0,0,1,0-.17v-.1c0-.17.12-.25.16-.62a1.24,1.24,0,0,0-.18-.73.51.51,0,0,0-.13-.55c-.14-.11-.21-.13-.26-.22-.05.27-.23.2-.21.44a.65.65,0,0,0-.13.47c0,.19,0,.41,0,.41a2.29,2.29,0,0,0,0,.25c0,.27.24.46.27.62v0a.64.64,0,0,1,0,.2c-.27,0-.53.11-.53.24s.07.14.18.15a.86.86,0,0,0,0,.32c-.17.05-.27.13-.27.27a.15.15,0,0,0,.1.16.54.54,0,0,1-.42.19c-.17,0-.4-.34-.4-.52a.59.59,0,0,0-.33.41c0,.15,0,.31.09.34-.27,0-.2.26-.63.22a.77.77,0,0,0,.94.45.3.3,0,0,0,0,.21,5.43,5.43,0,0,1,.22.71,1.28,1.28,0,0,1,.42-.1c0,.31.22.44.32.84a2.27,2.27,0,0,1,.32-.3c.2.52.72.2,1.06.45a1.3,1.3,0,0,1,.09-.4c.18.25,1.05.38,1.05.38s.06.4.11.59a1.82,1.82,0,0,0,.32.56,3.07,3.07,0,0,0,.42.38,4.57,4.57,0,0,0,.54.6,1.25,1.25,0,0,1,.4.24.63.63,0,0,1,.16.27c0,.05.08.47.13.91v0l-.15,0a.93.93,0,0,1-.37,0,.75.75,0,0,1-.34-.18l-.06-.06,0-.06,0,0-.27.12a1.64,1.64,0,0,1-.44.09.76.76,0,0,1-.53-.29L23,33l-.06.06s-.65.59-1.23.27a1.07,1.07,0,0,1-.48-1,.28.28,0,0,1,0-.08l0-.13-.13,0a1.55,1.55,0,0,1-.89,0,.92.92,0,0,1-.48-.65v0a.65.65,0,0,0,.15-.18l-.15-.09a2,2,0,0,1-.53.35,1.09,1.09,0,0,1-.59.1,1.13,1.13,0,0,1-.6-.27.75.75,0,0,1-.16-.15v0a1.05,1.05,0,0,0,.22-.3L18,30.83a.88.88,0,0,1-.29.34,4,4,0,0,1-.46.24,1.45,1.45,0,0,1-.68.13,1.68,1.68,0,0,1-1-.6v0a.86.86,0,0,0,.14-.13l-.15-.1A2.66,2.66,0,0,1,15,31a2.68,2.68,0,0,1-1.79.52A3,3,0,0,1,11.73,31l-.13.11a3,3,0,0,0,1.65.61A2.91,2.91,0,0,0,15,31.23a2.9,2.9,0,0,0,.29-.19h0a1.86,1.86,0,0,0,1.16.66,1.73,1.73,0,0,0,.86-.2,2.91,2.91,0,0,0,.35-.18h0a1.07,1.07,0,0,0,.18.19,1.41,1.41,0,0,0,.71.3,1.31,1.31,0,0,0,.7-.11l.23-.11h0v0a1,1,0,0,0,.56.68l.07,0a1.36,1.36,0,0,0,.6,0l.19,0h0v0a.93.93,0,0,0,0,.33,1.12,1.12,0,0,0,.15.41L19,35.6l-3,3.29-.39.43v-.43l0-1.38-.82,1.38-.29.48-.11-.48-.54-2.36-1,2.36-.11.25a2.23,2.23,0,0,0-1.89.3l.08.11a2.09,2.09,0,0,1,1.76-.27,1.51,1.51,0,0,1,.8,1,.57.57,0,0,0-.34,0l-.06,0a.91.91,0,0,0-.8-.12,1.69,1.69,0,0,0-.28.12l-.11.07.09.12a.33.33,0,0,1,.1-.06,1,1,0,0,1,.24-.11.71.71,0,0,1,.7.14h0a1,1,0,0,1,.35.62,1.31,1.31,0,0,1,0,.28s0,.06,0,.09a.58.58,0,0,0,0,.1l.14,0a.74.74,0,0,1,0-.12s0-.06,0-.09a1.6,1.6,0,0,0,0-.31,1.2,1.2,0,0,0-.34-.66.45.45,0,0,1,.28,0h.08a1.52,1.52,0,0,1,1.31,1,0,0,0,0,0,0,0,.94.94,0,0,1-.3,1.19l-.19.11.21,0A.92.92,0,0,1,15.5,44l0,.22v0l0,0,.14-.16a1.12,1.12,0,0,1,1.93.16h0a.29.29,0,0,1,0,.09l0,.13.1-.09a1,1,0,0,1,.2-.13h0a.72.72,0,0,1,.67,0,.46.46,0,0,1,.23.3l.14,0a.57.57,0,0,1,0-.26.68.68,0,0,1,1-.43l.05-.14a.75.75,0,0,1-.49-1.15.71.71,0,0,1,1-.19,1.22,1.22,0,0,0,0,.57l.14,0a1.5,1.5,0,0,1,.48-1.28h-.21l-.08.1a.37.37,0,0,1-.05-.11A1.26,1.26,0,0,1,22,39.85l.07,0v0a1,1,0,0,1,.61.28l.1-.1a1.15,1.15,0,0,0-.68-.33,1.64,1.64,0,0,1,.48-.81h0a3.52,3.52,0,0,1,1.9-.91,4.8,4.8,0,0,0-.08.85v.07c0,1.1.18,1.45.18,2.06a2.78,2.78,0,0,0-.06.58c0,.49,0,1.06,0,1.13s-.2.81-.38,1.51a7.23,7.23,0,0,0-.29,1.68l-2.24,1-4,1.73v-.61h-.27a4.31,4.31,0,0,1-.82-1.12,2.17,2.17,0,0,1-.15-.35c-.05-.16-.11-.43-.11-.43h.21v-.31l-.25-.28L15.38,45l-1,.54v.35h.16v.32a2.12,2.12,0,0,1-.15.65,2.74,2.74,0,0,1-.21.42l-.54.69h-.42v.77a20,20,0,0,1-1-1.88,16.52,16.52,0,0,1-1-2.63h-.91a20.19,20.19,0,0,0,.75,2.63,19.76,19.76,0,0,0,1.15,2.63,21.66,21.66,0,0,0,1.18,2h0c.31.45.62.88,1,1.3a17.37,17.37,0,0,0,1.19,1.35h2.55L18,53.94H34.24l-.15.12-.4.3H18.52c-.13-.09-.26-.2-.38-.3H15.59a22.42,22.42,0,0,0,2.16,2c.61.48,1.23.92,1.84,1.32A19.31,19.31,0,0,0,22,58.67h8.22a19,19,0,0,0,2.43-1.32h0A20.93,20.93,0,0,0,34.49,56a21.19,21.19,0,0,0,2.15-2c.41-.43.82-.88,1.2-1.36s.66-.86,1-1.31a20.36,20.36,0,0,0,1.18-2h0a19.09,19.09,0,0,0,1.15-2.62,19.89,19.89,0,0,0,.75-2.64,21.25,21.25,0,0,0,.38-2.64c0-.58.07-1.18.07-1.79V15.61ZM28.54,38.89h0a.49.49,0,0,1,.27.54.73.73,0,0,0-.83-.08c0-.13,0-.25,0-.38a.42.42,0,0,1,.12-.08h0A.58.58,0,0,1,28.54,38.89Zm1.75-10.51h0v0a1.51,1.51,0,0,1,0-.3,2.89,2.89,0,0,0,.13-.77,7.65,7.65,0,0,0-.08-.93c0-.13.12-.2.26-.2s.41.16.41.75a2.32,2.32,0,0,1-.69,1.45Zm.61,0h0a3.23,3.23,0,0,1-.41.49,1.47,1.47,0,0,1,.13-.37l.06-.12a3.46,3.46,0,0,0,.42-1.46c0-.64-.16-.88-.41-.91a.36.36,0,0,0-.35.12c-.16.15-.15.18-.12.32a1.71,1.71,0,0,1,.08.57c0,.41,0,.89-.08.81a.49.49,0,0,1-.13-.12l0-.15c0-.1,0-.2,0-.31a2,2,0,0,0,0-.26c0-.29-.06-.29-.06-.58a.66.66,0,0,1,0-.24.19.19,0,0,1,0-.09s.14-.16.15-.16a1.15,1.15,0,0,1,.41-.08.52.52,0,0,1,.45.31,1.62,1.62,0,0,1,.09.38l0,.28A2.16,2.16,0,0,1,30.9,28.34Zm.94-1.82s0,.05,0,.08v0s0-.16-.18-.19-.27-.05-.27-.13.13,0,.15-.08-.27-.15-.09-.18.19,0,.26.19a.66.66,0,0,0,.17.23ZM32,26l.21.11.06.07h0l.07.11.05.07-.09,0c-.1,0-.06-.05-.19-.15L31.84,26Zm-1.55-.81h0a3.36,3.36,0,0,1,.88.26l.5.17c.14,0,0,.11-.21.06a3.41,3.41,0,0,1-.48-.18.86.86,0,0,0-.64-.06,1,1,0,0,1,.51.17.65.65,0,0,1,.16.13.74.74,0,0,1,.13.21,1.05,1.05,0,0,0-.4-.19l-.08,0a1.88,1.88,0,0,0-.33-.05.33.33,0,0,0-.15-.27,1,1,0,0,0-.35-.07A.63.63,0,0,1,30.41,25.16Zm-.53.55h0a.13.13,0,0,1,0-.06.2.2,0,0,1,.2-.18.2.2,0,0,1,.2.18.13.13,0,0,1,0,.06.18.18,0,0,1-.19.12A.18.18,0,0,1,29.88,25.71Zm-8.61-1.94h0a.46.46,0,0,1,.12.48c0-.06-.16-.26-.19-.2S21.27,23.84,21.27,23.77ZM20.94,25a3.37,3.37,0,0,0-.09-.34,2.81,2.81,0,0,1,.39.56,1.32,1.32,0,0,0-.29-.79A.45.45,0,0,1,21,24l0,.2a2.38,2.38,0,0,1,.31.4c.05.12.22.3.21.47s0,.13,0,.23l-.07.13a.51.51,0,0,0,0,.17.31.31,0,0,1,0,.09v0l0,0s-.07-.05-.13-.08a.15.15,0,0,1-.06-.05h0a.77.77,0,0,0-.07-.16c0-.05,0-.18,0-.23S20.94,25.1,20.94,25Zm.11,1.06h0a1.45,1.45,0,0,1,.36,0c.2,0,.46.05.45.09s-.14.07-.18.09-.09,0-.07,0-.08-.06-.19-.05l-.34,0C21,26.21,21,26.08,21.05,26.07Zm.33.21h0c.29,0,.31.11.31.11l0,.21a.74.74,0,0,0-.21,0c-.18,0-.16-.06-.19-.07a.23.23,0,0,0-.16,0c-.09,0,0-.11,0-.11S21.09,26.26,21.38,26.28Zm.43.4h0a.19.19,0,0,1,.19.17.16.16,0,0,1-.11.16.14.14,0,0,0,0-.15c-.18-.16-1-.09-1-.15A4.26,4.26,0,0,1,21.81,26.68Zm-.19.2c.14,0,.17.05.15.12s-.1,0-.24,0a2,2,0,0,0-.42,0c-.18,0-.1,0-.1-.08s-.34-.08-.34-.11A4.85,4.85,0,0,1,21.62,26.88Zm.55,2.21h0c-.1.09-.22,0-.21.07s.05.22.14.27a1.16,1.16,0,0,0-.08.2l0,.12-.17,0-.31,0a.35.35,0,0,1-.38-.24l-.06-.16-.27.23-.05,0,0-.08a1.28,1.28,0,0,0-.11-.2.56.56,0,0,1-.1-.33V28.8c0-.12,0-.26.1-.28s0-.06.13.08a.77.77,0,0,1,0,.36c0,.13.08.08.08.15s.07.23.07.12,0-.21,0-.34,0-.13.1-.05a.54.54,0,0,0,.28.08s0,0,.06.16a1.56,1.56,0,0,1,.17.25c0,.09.19.11.12,0s-.08-.13-.05-.22,0-.13.12-.12.12.11.16.1,0-.17.1-.19S22.26,29,22.17,29.09Zm0-.74v0a.63.63,0,0,1-.64.38.7.7,0,0,1-.69-.41h-.27a.21.21,0,0,1,0,.19,1.27,1.27,0,0,0-.16.3h0l-.15,0-.12,0c0-.05,0-.09,0-.13a1.33,1.33,0,0,0-.11-.24l-.06-.18a.48.48,0,0,1,0-.17l.08-.24-.13.05c-.27.11-.33-.24-.55-.28a.87.87,0,0,1,.1-.08h.15c.1,0,.19.09.29,0s.26-.1.31-.06.12.09.13.36,0,.34,0,.38v0s.05.06.09,0l0-.07c.05-.16.12-.22.14,0a.52.52,0,0,1,0,.11h.28a.9.9,0,0,1-.08-.28c0-.17.26-.59.56-.58s.46.32.49.47-.14.37-.35.37,0-.16-.05-.22a.12.12,0,0,0-.11-.13h0c-.12,0-.19.15-.18.24a.24.24,0,0,0,.05.14c.05.08.16.13.39.11a.35.35,0,0,0,.26-.11h0a.75.75,0,0,0,.14-.52c0-.17-.27-.39-.43-.46a.86.86,0,0,0-.59,0,2.33,2.33,0,0,1-.79.12c-.22,0-.42,0-.52-.21a.38.38,0,0,1,0-.36.55.55,0,0,0,.47.41,1.89,1.89,0,0,0,.57-.14,2.14,2.14,0,0,1,.54-.18.84.84,0,0,1,.64.12.73.73,0,0,1,.22.27.8.8,0,0,1,.14.39A1.06,1.06,0,0,1,22.14,28.35Zm2.36,2a3.45,3.45,0,0,1-.12.43l-.13-.19c-.06-.09-.2,0-.26-.1a1.18,1.18,0,0,0-.17-.22c-.06,0,0-.19-.16-.32l.79.06A.56.56,0,0,1,24.5,30.34Zm2.36.48h0c-.25,0-.52.06-.67.07s-.38-.1-.73-.1-.81-.05-.82-.12,1.92,0,2.22,0S27.11,30.81,26.86,30.82Zm-2.21-.38h0l0-.4.4,0s.07.36,0,.37S24.64,30.56,24.65,30.44Zm3.49-.22-.34.33c-.13.13-.43.36-.43.36a.6.6,0,0,0,0-.19c0-.18-.23-.18-.24-.41s.07-.32.07-.32c.42,0,.79-.06,1.09-.1Zm-1.76-3.53h0c-.06,0-.1,0-.15-.08s.16-.07.23-.05S26.44,26.69,26.38,26.69Zm-.66-.53h0c.12-.1.12-.18.22-.2a.65.65,0,0,1,.28,0c.13,0,.24.23.18.3s-.15.1-.14,0-.08-.09-.18,0,.07.09.06.13.07.32,0,.36-.1-.1-.21-.08-.2-.21-.13-.28.05-.08-.07-.07S25.61,26.25,25.72,26.16Zm-3,1.63a12.64,12.64,0,0,1,1.26-.2,3.67,3.67,0,0,1,.82.07c.32,0,.91,0,1.31,0s.37.11.7.1.49.08.65.07.16.08-.05.1H27.3s-.76,0-1.26,0-2.92.05-3.41.1A1.21,1.21,0,0,1,22.68,27.79Zm.44,1.48h0c-.36-.08-.5-.32-.51-.94v-.25c.41,0,2.93-.11,3.42-.1l1.26,0a1,1,0,0,0,.25,0,5.62,5.62,0,0,1,1.6.1,1.24,1.24,0,0,1,.53.23.55.55,0,0,1,.17.44c0,.44-.82.56-1.08.59s-2.53,0-2.91,0l-1.64,0A5,5,0,0,1,23.12,29.27ZM19.18,35.6l2.18-2.39a1.27,1.27,0,0,0,.51.34l-2.2,2.05-3.22,3ZM13.77,37l.1.42-.67,1Zm3.91,7.13a.9.9,0,0,0-.23-.4.48.48,0,0,1,.62.23A1,1,0,0,0,17.68,44.13Zm4.7-5.25h0a1.71,1.71,0,0,0-.43.82,1.41,1.41,0,0,0-1.38,1.83,2.56,2.56,0,0,0,.11.24,2.21,2.21,0,0,0-.16.35.86.86,0,0,0-1.2.26.84.84,0,0,0,.19,1.17.77.77,0,0,0-.74.61.74.74,0,0,0-.56-.22.65.65,0,0,0-.89-.32,1.36,1.36,0,0,0-1.68.16,1,1,0,0,0-.85-1,1.11,1.11,0,0,0,.25-1.22l0-.07a1.7,1.7,0,0,0-1.38-1.14,1.66,1.66,0,0,0-.87-1.17l.2-.26.94-1.28.31,1.28.19.77.51-.77.52-.81,0,.81,0,.79.86-.79,3.53-3.29,2.19-2a1.21,1.21,0,0,0,.56-.13,1.74,1.74,0,0,0,.33-.18l.07,0,.11.09a.86.86,0,0,0,.48.18,1.71,1.71,0,0,0,.5-.1l.13,0h0l.05,0a1,1,0,0,0,.4.22,1.14,1.14,0,0,0,.45,0l.15,0a4.22,4.22,0,0,1,0,.87c0,.15-.15.58-.3,1.12s-.39,1.51-.52,2.22A3.61,3.61,0,0,0,22.38,38.88Zm5.5,18.48-.64.17c-.45.12-1.16.25-1.16.25s-.72-.14-1.18-.25l-.63-.18h0a14.15,14.15,0,0,1-2.78-1.15H30.7A13.91,13.91,0,0,1,27.88,57.36ZM31.09,56h-10a3.29,3.29,0,0,1-.33-.16H31.39Zm.42-.24H20.69q-1-.55-1.89-1.2H33.4A20.86,20.86,0,0,1,31.51,55.76Zm-3-6.33-.06,0c-.19.09-.19,0-.31.09s-.36.37-.54.51-.09,0-.19,0,.08-.34.19-.5l.07-.08h-.08c-.13.15-.23.29-.26.31a.69.69,0,0,1-.34,0s0,0,.12-.29l0,0h0c.08-.25,0-.31-.12-.75a1.84,1.84,0,0,0-.66-.67.14.14,0,0,1,.19,0h0c0-.12,0-.27-.07-.31s-.36,0-.53.07c-.29-.26-.29-.32-.59-.4s-.28.08-.68,0c-.21,0-.22.12-.14.19l0,.12,0-.1a.06.06,0,0,0,.06,0,.36.36,0,0,1,.33.08c.05,0-.08.07-.3.11l-.06-.1v.11c-.11,0,.05.17.18.12a1,1,0,0,1,.64.05c-.27.14-.37.44-.55.67a.7.7,0,0,1-.56.29.58.58,0,0,0,.52.05s0,.14,0,.48v.05c0,.38-.14.46-.65.14a1.85,1.85,0,0,1-.27-.19h0c-.09-.08-.18-.16-.38-.31a3.44,3.44,0,0,0-1.45-.29c-.33-.06-1.54-.05-1.54-.05l4.59-2,.87-.37.87.37,4.67,2-2.08-.1a3.57,3.57,0,0,0-1.3.15,1.81,1.81,0,0,0-.62.57h.09a2,2,0,0,1,.63-.47,5.52,5.52,0,0,1,.8-.12,2.15,2.15,0,0,1,.62,0c.17,0,3,.09,3.33.11s.11,0,.11,0l.21,0c.45.08,1.29.22-.1.09-.16,0,0,0-.33,0s-1.27.06-1.63,0-2.21.14-2.5.14-.2.06-.31.13Zm3.39.22c.22.14.07.12-.13,0s-.38-.13-.18,0,.05.1-.18,0-.35-.1-.15,0,.28.18,0,.06-.44-.11-.2,0,.23.18,0,.06-.38-.09-.14,0,.21.2-.11.07-.39-.13-.2,0,.15.19-.1.05-.4-.11-.18,0,.23.2-.05.07-.52-.2-.24,0,.3.25.06.12-.53-.18-.27,0,.24.2-.09.08-.38,0-.15,0,.19.11-.13,0-.45,0-.19,0,.32.18,0,.08-.5-.06-.22,0,.26.15,0,.11-.36,0-.1.07.34.15.06.1a2.84,2.84,0,0,0-.42-.09c-.05,0-.06-.14.07-.22a2.11,2.11,0,0,1,.67-.35,7.9,7.9,0,0,0,.84-.2,1.6,1.6,0,0,1,.79-.24,6,6,0,0,0,1,0l.31.15c.3.16.14.16,0,.07S31.71,49.51,31.93,49.65Zm-6.73-2c-.18-.09-.37-.16-.17-.18l.2,0v0a.08.08,0,0,0,.09.06.08.08,0,0,0,.1-.06.25.25,0,0,1,.09,0,3,3,0,0,1,.39.32l-.12.09a.31.31,0,0,0-.19,0c-.07,0-.14-.09-.22-.1h0C25.12,47.8,25.38,47.71,25.2,47.62Zm.44.61c-.28.08-.26.16-.2.24s.23-.22.29-.19.45,0,.35.21v0L26,49.1l-.15-.24-.07.24-.08-.27-.09.27-.1-.32-.12.27,0-.29-.14.24,0-.29-.24.1s.06,0,.18-.31h0a.64.64,0,0,1,.37-.37C25.69,48.11,25.91,48.15,25.64,48.23Zm-.27,3.16a1,1,0,0,0,.26.53c.24.26.15.23,0,.1a.75.75,0,0,1-.37-.56V51.4a1.11,1.11,0,0,1,.26-.84c.25-.38.79-.56,1-.73a.8.8,0,0,0,.24-.39,2,2,0,0,0,.07-.48c0-.29-.51-.59-.51-.59l.11-.12s.4.27.47.43a.87.87,0,0,1,.06.71.06.06,0,0,0,0,0h0a.93.93,0,0,1-.53.7,2,2,0,0,0-.9.82A.83.83,0,0,0,25.37,51.39Zm.89-2.9h0s.5.19.42.63a3.2,3.2,0,0,1-.08.31.26.26,0,0,1-.07.15.43.43,0,0,1-.21-.15.37.37,0,0,1-.05-.11A3.29,3.29,0,0,1,26.26,48.49Zm-3.49,3.42c-.16.14-.28.07-.14-.09s-.06-.1-.22,0-.2.09-.11-.07.07-.19-.13-.1-.27.06-.1-.09,0-.17-.2-.07-.15,0-.05-.1l.05-.06c.15-.12.06-.17-.13-.08s-.18,0,0-.11,0-.12-.15-.06-.26,0-.1-.12,0-.14-.23,0-.27,0-.12-.07,0-.14-.21,0-.29.08-.15,0,0-.15-.21,0-.34.06-.16-.08-.1-.07-.23,0-.19,0,0-.13,0-.08-.2,0-.23,0-.11-.08,0-.13-.21,0-.25,0-.13-.07,0-.09-.22,0-.32,0-.15-.08.05-.13-.18-.06-.29,0-.11-.07,0-.11-.21,0-.23,0-.09-.07,0-.1-.17,0-.32.07-.19,0-.06-.11-.19,0-.29.08-.15,0-.07-.08-.21,0-.29,0-.09-.07-.14,0-.29,0S17,50,17.09,50s-.07-.05-.23,0-.23,0-.1-.08-.07-.05-.25,0-.13,0,0-.12.11-.11.33-.11a1.78,1.78,0,0,1,.48.1,9.07,9.07,0,0,1,1.56.26c.21.08.32.16.53.25.67.26,1.13.1,1.8.36a2.29,2.29,0,0,1,.84.42c.14.12.17.24.29.35l.06,0h0c.2.13.45,0,.58.17s.18.17.09.29-.21.1-.13,0S22.92,51.76,22.77,51.91Zm-4.06-2.43a6.41,6.41,0,0,0,1.06.15c.24,0,.16.16.4.26s.29,0,.48,0,1.59.33,1.76.39h0c.17.07.17.21.15.25a2,2,0,0,0-.33.15c-.22.09-.18,0,0-.1s.08-.12-.14,0-.25,0-.05-.12.06-.15-.23,0-.28.06-.1-.07.06-.13-.19,0-.31.09-.15,0,.05-.14-.2,0-.35.06-.12-.08-.08-.07-.25.06-.21,0,0-.12,0-.08-.21,0-.25.06-.09-.06,0-.13-.19,0-.27,0-.12-.05.06-.11-.21,0-.33,0-.13-.08.1-.13-.16-.05-.29,0-.08-.07.07-.1-.21,0-.23,0-.06-.07,0-.1-.16,0-.35.08-.19,0,0-.1-.18,0-.32.09-.14,0,0-.08-.2,0-.32.06-.07-.07C18.47,49.6,18.73,49.48,18.71,49.48Zm4.3.09c-.19,0,.1-.1-.17-.1s-.21,0-.58,0h-.13c-.13,0,0-.09-.25-.09s-.34-.12-.61-.12-.12,0-.62-.07c-.93-.08-2.52,0-2.52,0a13.28,13.28,0,0,1,2.52-.25c.26,0,1.08.07,1.49.07a3.85,3.85,0,0,1,1.21.2,1.25,1.25,0,0,1,.42.3h0l.14.13c.14.14.26.24.24.38s.14.12-.27.1-.46-.17-.53-.29A.37.37,0,0,0,23,49.57Zm13.58-4.49.6.34H35.9Zm-.89.67v-.22h1.65v.22Zm-.21,1.54a2.82,2.82,0,0,0,.25-.49,1.92,1.92,0,0,0,.14-.63v-.33h1.34v.33a1.52,1.52,0,0,0,.14.63,2.78,2.78,0,0,0,.24.49l.44.62H35Zm3,.75v.51H34.56V48Zm-23.13-3,.6.34H14.68Zm-.89.67v-.22h1.65v.22Zm-.21,1.54a2.82,2.82,0,0,0,.25-.49,1.69,1.69,0,0,0,.13-.63v-.33H16v.33a1.7,1.7,0,0,0,.14.63,2.26,2.26,0,0,0,.25.49l.43.62h-3Zm-.93.75h3.94v.51H13.34Zm0,.82v-.21h4.33L22,46.8,26.08,45h0l4.11,1.77,4.34,1.87H39l-.28.42H34.37L29,46.8l-3-1.27-3,1.27-5.33,2.29h-4.3Zm4.46,5c-.44-.35-.87-.73-1.3-1.12s-.85-.85-1.26-1.3h0a21.17,21.17,0,0,1-1.45-1.83h1.25c-.77.38-.56.43-.15.38s.54-.24.78-.24.35.14.59.23c-.1.13.28.07.28.07,0,.17.38.06.38.06s.21.11.29.08.1.16.38,0c-.08.17.36,0,.36,0-.19.21.19.12.26.1,0,.19.33.06.33.06s.18.15.3.14c-.1.18.24.18.41.11-.13.15.22.14.28.13-.07.19.23.12.37.07-.13.21.2.11.23.09-.09.2.42,0,.42,0-.27.36.29.1.29.1s.17.2.39.09c-.14.13.12.14.18.13a.14.14,0,0,0,0,.15.18.18,0,0,0,.22,0c-.32.32.09.28.22.23-.2.23.09.23.18.19,0,.28.26.18.41.12-.11.19.1.2.32.1,0,.11.1.18.31,0a4.66,4.66,0,0,1,.74,0,4.18,4.18,0,0,1,.39.18c.19.07.46-.17.41.41v.08h0c0,.49,0,.47-.3.61s-.84.3-1,0-.41-.12-.16.11c.62.56.81.06,1.11.13s.33.26.33.26Zm8.42-.22c-.15,0-.21-.18.13-.13s2.1.35.94-.51a2.62,2.62,0,0,0-.49-.27h0l-.11-.08c-.13-.1-.12-.23,0-.16a4,4,0,0,1,.46.24,1.78,1.78,0,0,1,.36.25,2.85,2.85,0,0,1,.23.26.57.57,0,0,1,.11.27c0,.1-.24.22-.33.23A4.29,4.29,0,0,1,26.23,53.6ZM37,51.4c-.42.46-.84.9-1.29,1.31s-.86.77-1.3,1.13H27.59s.4-.13.41-.34-.23-.49-.37-.63a.56.56,0,0,1-.09-.17,1.5,1.5,0,0,1,0-.37,1,1,0,0,0,.48.12,3.29,3.29,0,0,0,1-.28s.61.17.49-.23c0,0,.37,0,.11-.13.05,0,.52,0,.25-.15.26,0,.28,0,.12-.18v0c.09,0,.26,0,.2-.06h-.43a.16.16,0,0,0,.1.08c.12.07,0,.12-.1.05s-.25,0-.05.1,0,.1-.08.08a.21.21,0,0,0-.15,0c-.23,0,.09.12,0,.15a.74.74,0,0,1-.25.05c-.11,0,.06,0,.1.14s-.08.1-.16.1-.07-.06-.2-.12.13-.15-.06-.2,0-.15.25-.19.08-.14.15-.2a.18.18,0,0,1,.07,0h0c.2,0,.25-.31.42-.31s.21-.1.09-.12,0-.14-.18-.14.05-.36.29-.37.14-.22.44-.22c.11,0,.07,0,.25-.07a4.18,4.18,0,0,1,.87,0c.64,0,.42-.08.81-.1s.17-.12.46-.12.18.11.37.11,0-.11.22-.11-.33.11.55.07a3.59,3.59,0,0,1,1.45.12s-.09.12-.19,0-.17-.09-.11,0-.07.11-.15,0-.21-.12-.13,0,0,.14-.18,0-.17-.07-.1.06-.05.1-.17,0-.18-.1-.11,0-.06.13-.23,0-.25-.09-.17.05-.07.13-.23,0-.18-.11-.13,0,0,.15-.17,0-.24-.11-.15.06,0,.11-.19,0-.18-.16-.1,0,0,.12-.17,0-.26-.12-.17,0-.05.12-.17,0-.22-.13-.14,0,0,.14-.17,0-.17-.09-.1.05,0,.12-.2-.05-.19-.06-.07.1-.1,0-.25-.12-.21-.06-.06.11-.1.09-.27-.06-.14,0-.06.08-.06.07-.19-.06-.24-.11-.2,0,0,.15-.07.08-.12,0-.09.12,0,0-.1.09,0,.07.07.14.17.18,0,.15-.15-.08-.1.09,0,.13-.15.06-.15,0,0,.07,0,.07-.16,0-.12,0-.07.07.06.11-.07.09-.18,0-.16,0h.43a.24.24,0,0,0-.08-.09c.05,0,.52.17.25-.06,0,0,.33.16.17-.16.2,0,.49-.14.12-.3.26,0,0-.21,0-.21s.27.16.17-.13c.17.13.5.35.38,0,.06,0,.53.24.35,0,0,0,.44.27.31,0,0,0,.32.19.26,0,.1.08.38.29.3,0,0,0,.47.23.32,0,0,0,.4.31.29,0,0,0,.38.21.3,0,.09.08.45.31.32,0,.07.06.54.26.4,0,.07.06.46.31.36,0,0,0,.35.24.3,0,.08.09.4.22.28,0,0,0,.34.15.28,0,.05,0,.31.12.24,0a5.14,5.14,0,0,1,1.24,0c.39,0,.47-.12,0-.18s.86-.15,1.56-.21A18.37,18.37,0,0,1,37,51.4Z"/><path class="cls-1" d="M26.21,12.55c0-.54-.38-.66-.74-.66h-.34V14.2h.33v-.9l.53.9h.39l-.61-1A.61.61,0,0,0,26.21,12.55Zm-.32,0c0,.28-.19.33-.43.33v-.67C25.71,12.23,25.89,12.26,25.89,12.57Z"/><polygon class="cls-1" points="15.24 13.49 13.77 11.69 13.77 14.2 14.1 14.2 14.1 12.61 15.56 14.4 15.56 11.89 15.24 11.89 15.24 13.49"/><path class="cls-1" d="M34.81,13a.58.58,0,0,0,.14-.42c0-.48-.32-.64-.69-.64H33.9V14.2h.49a.64.64,0,0,0,.73-.67A.61.61,0,0,0,34.81,13Zm-.59-.71h0c.25,0,.38,0,.38.31s-.15.32-.38.32h0Zm.16,1.62h-.16v-.68h.13c.23,0,.45.05.45.33S34.6,13.86,34.38,13.86Z"/><path class="cls-1" d="M42.11,12.17a1,1,0,0,0-.77-.28h-.42V14.2h.41a.93.93,0,0,0,.78-.3,1.17,1.17,0,0,0,.33-.85A1.24,1.24,0,0,0,42.11,12.17Zm-.22,1.48h0a.62.62,0,0,1-.55.21h-.09V12.23h.09a.7.7,0,0,1,.55.19A1,1,0,0,1,41.89,13.65Z"/><path class="cls-1" d="M18.18,14.2h.35l.23-.63h.73l.22.63h.35l-.93-2.53Zm.71-1,.23-.65.24.65Z"/><polygon class="cls-1" points="12.38 14.2 13.47 14.2 13.47 13.86 12.7 13.86 12.7 13.11 13.44 13.11 13.44 12.77 12.7 12.77 12.7 12.23 13.47 12.23 13.47 11.89 12.38 11.89 12.38 14.2"/><rect class="cls-1" x="17.74" y="11.89" width="0.32" height="2.31"/><rect class="cls-1" x="33.26" y="11.89" width="0.32" height="2.31"/><path class="cls-1" d="M16.83,11.85a1.14,1.14,0,0,0-1,1.21,1.12,1.12,0,0,0,1,1.18.9.9,0,0,0,.6-.23h0v-.49l-.11.12a.72.72,0,0,1-.52.27.87.87,0,0,1,0-1.71.73.73,0,0,1,.53.27l.11.12V12.1l0,0A1,1,0,0,0,16.83,11.85Z"/><polygon class="cls-1" points="26.33 12.23 26.78 12.23 26.78 14.2 27.11 14.2 27.11 12.23 27.56 12.23 27.56 11.89 26.33 11.89 26.33 12.23"/><polygon class="cls-1" points="27.71 14.2 28.81 14.2 28.81 13.86 28.04 13.86 28.04 13.11 28.79 13.11 28.79 12.77 28.04 12.77 28.04 12.23 28.81 12.23 28.81 11.89 27.71 11.89 27.71 14.2"/><path class="cls-1" d="M21.61,12.76h0a.36.36,0,1,0,0,.71.35.35,0,0,0,.36-.35A.36.36,0,0,0,21.61,12.76Z"/><path class="cls-1" d="M30.5,12.76a.36.36,0,1,0,0,.71.35.35,0,0,0,.36-.35A.36.36,0,0,0,30.5,12.76Z"/><polygon class="cls-1" points="32.59 11.89 32.27 11.89 32.27 14.2 33.11 14.2 33.11 13.86 32.59 13.86 32.59 11.89"/><path class="cls-1" d="M23.14,14.2h.35l.23-.63h.73l.22.63H25l-.93-2.53Zm.71-1,.24-.65.23.65Z"/><path class="cls-1" d="M37.83,12.55c0-.54-.38-.66-.75-.66h-.33V14.2h.33v-.9l.53.9H38l-.61-1A.61.61,0,0,0,37.83,12.55Zm-.32,0c0,.28-.19.33-.43.33v-.67C37.33,12.23,37.51,12.26,37.51,12.57Z"/><path class="cls-1" d="M38.93,14.2h.36l.22-.63h.72l.23.63h.35l-.93-2.52Zm.7-1,.25-.65.23.65Z"/><path class="cls-1" d="M10.82,11.85a1.14,1.14,0,0,0-1,1.21,1.11,1.11,0,0,0,1,1.17.94.94,0,0,0,.6-.22l0,0v-.48l-.11.12a.72.72,0,0,1-.52.27A.81.81,0,0,1,10.1,13a.8.8,0,0,1,.7-.85.71.71,0,0,1,.53.27l.11.12V12.1l0,0A.93.93,0,0,0,10.82,11.85Z"/><polygon class="cls-1" points="39.18 11.89 37.94 11.89 37.94 12.23 38.39 12.23 38.39 14.2 38.72 14.2 38.72 12.23 39.18 12.23 39.18 11.89"/><polygon class="cls-1" points="35.37 14.2 36.46 14.2 36.46 13.86 35.69 13.86 35.69 13.11 36.44 13.11 36.44 12.77 35.69 12.77 35.69 12.23 36.46 12.23 36.46 11.89 35.37 11.89 35.37 14.2"/><rect class="cls-1" x="11.73" y="11.89" width="0.32" height="2.31"/><path class="cls-1" d="M27.51,8a1.8,1.8,0,0,0-.62-.27.91.91,0,0,0-.23,0h-.14l0-.1a.8.8,0,0,0,.06-.3h1.12V6.85H26.57a2.6,2.6,0,0,1,0,.4,4.53,4.53,0,0,1-.21.9,1.52,1.52,0,0,1,.7.28.67.67,0,0,1,.24,1,1.08,1.08,0,0,1-.43.33l-.07-.06c-.1-.38-.3-.39-.49-.37l-.21.28a.58.58,0,0,1,.36.27,1.38,1.38,0,0,1,.14.24l0,0,.32-.26a7.15,7.15,0,0,0,.57-.53C27.74,9,28,8.31,27.51,8Z"/><path class="cls-1" d="M29.69,8a1.77,1.77,0,0,0-.63-.27.85.85,0,0,0-.23,0h-.14l0-.1a1.59,1.59,0,0,0,.06-.3h1.12V6.86H28.75l0,.39a4,4,0,0,1-.22.9,1.63,1.63,0,0,1,.71.28.67.67,0,0,1,.24,1,1.19,1.19,0,0,1-.44.33L29,9.65c-.11-.38-.3-.39-.49-.37a1.94,1.94,0,0,0-.21.29.51.51,0,0,1,.35.26,1.2,1.2,0,0,1,.15.24v0l.32-.26c.2-.17.39-.34.58-.53S30.12,8.31,29.69,8Z"/><path class="cls-1" d="M51,8.26l-.07,0H50.9a.18.18,0,0,1,0-.14.52.52,0,0,1,0-.21l0,0-.2.08a.85.85,0,0,1-.23,0,.26.26,0,0,1-.17,0,.26.26,0,0,0,.14-.11.49.49,0,0,0,0-.11.14.14,0,0,0,0-.09.1.1,0,0,0,0,0,.08.08,0,0,0-.11,0,.34.34,0,0,0-.12.12.36.36,0,0,0-.06.2l0,.5a1.17,1.17,0,0,0-.41.1.61.61,0,0,0-.33.28.55.55,0,0,0-.11.29.43.43,0,0,0,.05.25l0,0L50,9.21a1.28,1.28,0,0,0-.11.2.32.32,0,0,0,0,.14v.16h0l.43-.15V9.51l-.1,0V9.31l.57-.88.34-.1,0-.08Zm-1,.85-.4.11A.43.43,0,0,1,49.56,9a.41.41,0,0,1,.08-.24A.44.44,0,0,1,50,8.53l.1,0v.22l.07,0,0-.63a.56.56,0,0,0,.36,0v.22Z"/><path class="cls-1" d="M22.94,9.45V7.3a.18.18,0,0,1,0,0l0-.06.06-.1a2.69,2.69,0,0,1-.55-.46,2.32,2.32,0,0,1-.4.48l.23.15.08,0V9.51l-.1.13-.07.09.18.09a1.46,1.46,0,0,1,.33.22.65.65,0,0,1,.18-.15l.23-.13,0,0A.59.59,0,0,1,22.94,9.45Z"/><path class="cls-1" d="M25.52,7.26h0a3.39,3.39,0,0,0-.18-.39,2,2,0,0,1-.15-.27h0l0-.06-.08.07-.14.1L24.48,7a2.51,2.51,0,0,0-.37.27h0c-.36.32-.55.7-.43,1,.23.63.71.53,1.37.31l.09,0v.09a2.54,2.54,0,0,1-.11.73,1.08,1.08,0,0,1-.43.33l-.06-.06c-.11-.38-.31-.39-.5-.37l-.21.28a.61.61,0,0,1,.36.27l.15.24v0l.32-.26c.21-.18.45-.39.58-.52a2.56,2.56,0,0,0,.39-1.72A1.39,1.39,0,0,0,25.52,7.26Zm-.41,1.17,0,0c-.39.05-.81.05-.92-.39a.83.83,0,0,1,.25-.8h0a.84.84,0,0,1,.28-.18l0,0,0,0,.07.09v0h0c.06.12.11.25.16.38s.06.29.08.44a2,2,0,0,1,0,.22.22.22,0,0,1,0,.08A.13.13,0,0,1,25.11,8.43Z"/><polygon class="cls-1" points="50.75 9.61 50.69 9.57 50.2 9.72 50.19 9.8 50.34 9.77 50.35 10.06 50.4 10.1 50.89 9.94 50.9 9.87 50.76 9.91 50.75 9.61"/><path class="cls-1" d="M48.4,8.38l-.1,0V8.19l.52-.9.1,0,.23-.09,0-.08-.08,0-.07,0h0A.16.16,0,0,1,48.91,7a.64.64,0,0,1,0-.2l0,0a.56.56,0,0,1-.19.09.78.78,0,0,1-.22,0,.29.29,0,0,1-.18,0,.22.22,0,0,0,.13-.12.21.21,0,0,0,0-.11v0a.07.07,0,0,0,0,0s0,0,0-.06a.11.11,0,0,0-.11,0,.24.24,0,0,0-.1.1l0,0a.45.45,0,0,0,0,.2v.51a1.08,1.08,0,0,0-.4.11.72.72,0,0,0-.32.3.53.53,0,0,0-.09.3.57.57,0,0,0,.06.25l0,0,.64-.2a1.06,1.06,0,0,0-.11.21.59.59,0,0,0,0,.13v.16l0,0,.42-.17Zm-.68-.24a.57.57,0,0,1-.07-.22.42.42,0,0,1,.07-.24A.44.44,0,0,1,48,7.43l.1,0v.23l.07,0V7a.56.56,0,0,0,.36,0l0,.23,0,.06L48.11,8Z"/><path class="cls-1" d="M1.52,9.05l0,.1h0l.15.24,0-.06L1.49,9Z"/><path class="cls-1" d="M47.11,7.77a.35.35,0,0,1,0-.17c0-.11,0-.22,0-.35h0v0c0-.14.05-.29.08-.44l.18-.19.07-.08a.25.25,0,0,0,0,.08s0,0,0,0a.11.11,0,0,0,.07.08.16.16,0,0,0,.17,0l.07-.06.11-.15,0,0a.08.08,0,0,1-.09,0,.05.05,0,0,1,0-.05.49.49,0,0,1,0-.12.1.1,0,0,0,0-.09l-.41.45-.09.09a.29.29,0,0,0,0-.09s0-.09,0-.14,0-.16,0-.22a1.33,1.33,0,0,0,0-.2.13.13,0,0,0,0-.12.15.15,0,0,0-.11,0L47,6l-.14.09v.08a.09.09,0,0,1,.11,0c.05,0,.06.12.05.31a.52.52,0,0,0,0,.14c0,.14,0,.27-.07.41l-.22.25-.09.09a.29.29,0,0,0,0-.09h-.32l-.16.15v.06a.08.08,0,0,1,.09,0,.2.2,0,0,1,.1.22l0,0,.43-.46.1-.11a.22.22,0,0,1,0,.11h0c0,.17-.05.31-.06.43a1.16,1.16,0,0,0,0,.32l0,0,.4-.23V7.72A.18.18,0,0,1,47.11,7.77Z"/><path class="cls-1" d="M3.19,8.81A.41.41,0,0,1,3,8.72L2,7.25l-.42-.66,0,0,.06-.4-.07,0a.22.22,0,0,1,0,.18.18.18,0,0,1-.16,0,.78.78,0,0,1-.2-.11l0,0,0,.39,0,.2.07.06,0-.16a.54.54,0,0,0,.22,0l.33.51.87,1.33v.66a2.12,2.12,0,0,0-.44-.06L.88,7.25l0,0A1.13,1.13,0,0,0,.6,6.92.58.58,0,0,0,.35,6.8a.31.31,0,0,0-.23,0A.29.29,0,0,0,0,7.06a1.15,1.15,0,0,0,0,.19,1,1,0,0,0,0,.17,1.76,1.76,0,0,0,.17.37l0,0A.72.72,0,0,1,.2,7.47a.22.22,0,0,1,.08-.2h0a.18.18,0,0,1,.1,0l.06,0a.19.19,0,0,1,.1,0,.55.55,0,0,1,.16.18l.19.29A.56.56,0,0,0,.76,8a.34.34,0,0,0,.08.3A.9.9,0,0,0,1,8.47l.05,0a.47.47,0,0,1,0-.17.1.1,0,0,1,.05-.1l.09-.06.18.29a.5.5,0,0,0-.15.2.36.36,0,0,0,.08.3.9.9,0,0,0,.15.19l.05,0a.48.48,0,0,1-.05-.17.11.11,0,0,1,.06-.1l.08,0,.38.57a.46.46,0,0,0-.13.21v0a.84.84,0,0,0,0,.27,1,1,0,0,0,.06.34,1.35,1.35,0,0,0,.17.34,1,1,0,0,0,.25.28.46.46,0,0,0,.26.1.43.43,0,0,0,.22-.06.62.62,0,0,0,.14-.14l-.05-.08a.62.62,0,0,1-.14.14.38.38,0,0,1-.31,0A.63.63,0,0,1,2,10.47.81.81,0,0,1,1.86,10a.4.4,0,0,1,.19-.31,1,1,0,0,1,.33-.06l.13,0,.08-.05,0-.94L2.81,9A.65.65,0,0,0,3,9.14a.61.61,0,0,0,.18.09l.05,0,.06-.49-.07-.05Z"/><path class="cls-1" d="M49.28,8.72l-.32.1a2,2,0,0,0-.12-.34l.59-1,.09,0c-.05.19,0,.31,0,.35a.23.23,0,0,0,.16,0,.42.42,0,0,0,.18-.08l0-.07a.21.21,0,0,1-.1-.14.55.55,0,0,1,0-.22l0,0-.22.07a.89.89,0,0,1-.23,0,.33.33,0,0,1-.17,0l0,.09,0,.08-.54.93-.26.11v.07a.17.17,0,0,1,.14,0,.36.36,0,0,1,.07.17,2,2,0,0,1,0,.24l0,0,.63-.21Z"/><path class="cls-1" d="M.46,7.44a.18.18,0,0,0-.1,0,.07.07,0,0,0-.06,0l.09,0a1.19,1.19,0,0,1,.15.18l.14.21,0,0L.59,7.59Z"/><path class="cls-1" d="M4.46,8a.43.43,0,0,1-.3-.27l-.3-.52L3.75,7l.06-.35-.07-.05a.26.26,0,0,1-.06.19.17.17,0,0,1-.12,0l-.18-.12,0,0-.09.56,0,.25a2.07,2.07,0,0,0-.15-.25A.44.44,0,0,0,3,7.15L2.77,7l0,0,0,.22,0,.24.07,0,0-.13L3,7.53l.52.94-.06.38.08,0V8.76s0-.06,0-.07a.11.11,0,0,1,.11,0,1,1,0,0,1,.17.1l0,0,.07-.47-.06,0,0,.11-.19-.06-.37-.68.05-.39,0-.18.21.1,0,.08.49.89a.9.9,0,0,0,.15.19l.2.12,0,0L4.55,8l-.07-.06Z"/><path class="cls-1" d="M5.12,7.76,5,7.69a.45.45,0,0,1-.11-.13l-.15-.31-.28-.58V6.59l.06-.28-.08-.06a.17.17,0,0,1-.05.15l-.11,0-.16-.1h0L4,6.59l0,.18.07,0,0-.13.14.09.24.49.33.66A.32.32,0,0,0,4.9,8l.16.1.06,0,.1-.47-.06,0Z"/><path class="cls-1" d="M46.15,7.25h0v0l-.07,0,0,0v0L46,7l.2-.45.23-.5.32-.16V5.85l-.07,0-.07,0h0a.16.16,0,0,1-.06-.13.37.37,0,0,1,0-.21l0,0a.78.78,0,0,1-.18.11.79.79,0,0,1-.22.06.23.23,0,0,1-.18,0A.25.25,0,0,0,46,5.37a.09.09,0,0,0-.12,0l0,0a.45.45,0,0,0-.1.14.37.37,0,0,0,0,.21l.05.5a1.11,1.11,0,0,0-.39.16.62.62,0,0,0-.24.24.41.41,0,0,0,0,.09A.62.62,0,0,0,45,7a.5.5,0,0,0,.09.24l0,0L45.78,7a1.8,1.8,0,0,0-.08.21v.06a.11.11,0,0,0,0,.08l0,.16h0l.4-.21Zm-.32-.38L45.44,7a.5.5,0,0,1-.08-.2.48.48,0,0,1,0-.24v0a.46.46,0,0,1,.29-.27l.1,0,0,.22.07,0-.07-.62a.5.5,0,0,0,.36,0l.05.22L46,6.59Z"/><path class="cls-1" d="M2.39,9.13h0V8.66L1.49,7.25,1.27,6.9H1.19l.22.35,1,1.49Z"/><path class="cls-1" d="M44.08,6.82c-.15,0-.17-.1-.24-.21s0,0,0,0a.57.57,0,0,1-.09-.33,2.26,2.26,0,0,1,.08-.51,2.88,2.88,0,0,1,.2-.56l.06-.14a3.54,3.54,0,0,1,.25-.52,2.51,2.51,0,0,1,.26-.45l.15-.19.16-.14a1,1,0,0,1,.37-.19V3.47a1.92,1.92,0,0,0-.39.17,1.78,1.78,0,0,0-.36.25l-.05,0a2.41,2.41,0,0,0-.37.41,3.2,3.2,0,0,0-.29.51c0,.12-.1.23-.14.35a1.8,1.8,0,0,0-.1.4,2,2,0,0,0,0,.59,1,1,0,0,0,.13.41l0,0a.55.55,0,0,0,.26.26.53.53,0,0,0,.35,0,.87.87,0,0,0,.47-.25.18.18,0,0,0,.07,0h-.21A.62.62,0,0,1,44.08,6.82Z"/><path class="cls-1" d="M46.29,7.25h.32l-.06-.07A.26.26,0,0,0,46.29,7.25Z"/><path class="cls-1" d="M6.16,7.06s-.09-.23-.2-.47H6c-.09-.21-.2-.44-.26-.57s0-.49.13-.59c-.26.07-.32.22-.32.73l.19.43h0L6,7.23l0,0a.61.61,0,0,0-.12.16l-.33-.13v0l-.29-.66L5.1,6.34a1.09,1.09,0,0,0,0-.25A.47.47,0,0,1,4.94,6l-.16-.09h0l-.13.48.07,0,0-.13.14.09L5,6.59l.29.66.16.35c0,.06.18,0,.22,0l.28.09A.69.69,0,0,1,6,7.33l.08-.08.17-.1,0-.08Z"/><path class="cls-1" d="M7,6.92,6.66,6.8l-.08-.21,0,0,.3-.72,0-.08-.49-.48h0a.85.85,0,0,1-.15.3.52.52,0,0,1-.23.21L6,5.87l.08,0,.27.69L6.48,7l-.09.24.06,0a.25.25,0,0,1,.08-.12.1.1,0,0,1,.09,0,.46.46,0,0,1,.14.07l.06,0h0l0,0h0v0h0l.25-.59-.07,0Zm-.47-.48L6.2,5.66s0,0,.07-.1L6.71,6Z"/><path class="cls-1" d="M45.09,5.19,45,5.52a2.59,2.59,0,0,1-.78,1.07L44,6.65a.32.32,0,0,0,.27-.06,2.4,2.4,0,0,0,.74-1c.05-.13.1-.26.14-.39a2.12,2.12,0,0,0,.09-.75l-.06.13A2.2,2.2,0,0,1,45.09,5.19Z"/><polygon class="cls-1" points="3.69 5.72 3.91 5.86 3.94 5.84 4.01 5.38 3.95 5.33 3.92 5.47 3.7 5.34 3.67 5.36 3.59 5.83 3.66 5.87 3.69 5.72"/><path class="cls-1" d="M10,5.78a.36.36,0,0,1-.12-.08.24.24,0,0,1-.09-.15L9.7,5.19l-.19-.58.12-.34L9.57,4.2a.27.27,0,0,1-.07.14.16.16,0,0,1-.11,0l-.15-.12,0,0L9,4.64l.07.05.05-.12.13.1.17.52.23.7A.36.36,0,0,0,9.77,6l.14.12.07,0,.16-.46-.05,0Z"/><path class="cls-1" d="M41.76,5.18,42,4.43l.26-.19,0-.08-.08.06a.09.09,0,0,1-.07,0A.36.36,0,0,1,42,4.05l0-.17L41.64,2.6l-.24.23.28,1,0,0a.59.59,0,0,1-.55.06l0,.1,0,.08-.32,1,0,0-.24.17,0,.08a.18.18,0,0,1,.07,0h.06a.16.16,0,0,1,.09.07,1,1,0,0,1,0,.16.27.27,0,0,0,0,.12h0a1,1,0,0,1,.21-.1.77.77,0,0,1,.26-.07.59.59,0,0,1,.23,0l0,0,0,0h0l0-.09,0-.1Zm-.24,0-.08.28-.22.06L41,5.21v0l.34-1.1A.61.61,0,0,0,41.68,4l.11.36Z"/><path class="cls-1" d="M7.9,6.53l-.25-.12-.34-.85,0-.27a.34.34,0,0,0,.12.09.13.13,0,0,0,.12,0,.23.23,0,0,0,.1-.15s0,0,0,0a.28.28,0,0,0,0-.13.07.07,0,0,0-.09,0h0a.1.1,0,0,1-.1,0,.34.34,0,0,1-.12-.12l0,0,0,.31,0,.25a.89.89,0,0,0-.08-.17.22.22,0,0,0,0-.08l-.06-.05-.15-.09h0l0,.13-.08.29.07.06s0,0,0-.07a.05.05,0,0,1,0,0,.09.09,0,0,1,.08,0l.11.08.38,1,0,.09-.07.29.06,0,0-.08a.31.31,0,0,1,0-.08s0,0,0,0,.16,0,.34.2l0,0,.1-.3L8,6.39,8,6.34Z"/><path class="cls-1" d="M45.61,5.47a2,2,0,0,0,.11-.28H45.4a2.84,2.84,0,0,1-.17.49,2.91,2.91,0,0,1-.59.91h.2a1.9,1.9,0,0,0,.4-.45A4.38,4.38,0,0,0,45.61,5.47Z"/><path class="cls-1" d="M9.33,5.88l-.06,0-.2-.56,0,0s0,0,0,0h0a.06.06,0,0,0-.06-.05H9l-.12.05-.26.1v-.1l.11-.79,0,0a.41.41,0,0,1-.17.22H8.47l-.09,0-.1,0,0,0a1.15,1.15,0,0,1-.12.25A.35.35,0,0,1,8,5L7.88,5s0,0,0,0l0,0,0,0,.06,0,0,.05.15.43,0,0a.08.08,0,0,0,0,0v0s0,0,.06,0h0l.36-.13-.12.92v0l.05,0s0,0,0,0a.31.31,0,0,1,.13-.17.22.22,0,0,1,.16,0A.48.48,0,0,1,9,6.48l0,0a.52.52,0,0,1,.1-.26A.63.63,0,0,1,9.34,6s0,0,0,0Zm-1-.42-.11-.27-.1-.28,0-.06L8.33,5h.1a.29.29,0,0,0,.12-.1l.12-.18-.07.51v.19Zm.71.65A.28.28,0,0,0,8.92,6a.28.28,0,0,0-.29.12l-.1.17.1-.78.25-.09.24.64Z"/><path class="cls-1" d="M43.38,5.52a1.94,1.94,0,0,1,.07-.33h-.09a1.44,1.44,0,0,0,0,.24,1.46,1.46,0,0,0,0,.59,1,1,0,0,0,.13.41,1.4,1.4,0,0,1-.06-.28,1.17,1.17,0,0,1,0-.32C43.34,5.73,43.36,5.64,43.38,5.52Z"/><path class="cls-1" d="M38.34,3.42a.28.28,0,0,0,.11-.13.07.07,0,0,0,0-.1h0a.13.13,0,0,1-.07-.09.51.51,0,0,1,0-.17h0l-.37.43a.63.63,0,0,0,0-.19.33.33,0,0,0,0-.17l-.07-.16h0l-.34.29,0,.09.06-.05a.05.05,0,0,1,0,0,.09.09,0,0,1,0,.08l0,.12-.12.55-.09.45-.3.26,0,.08.06-.06.06-.06h0c.05,0,.11.13.17.35h.06L38,4.57l0-.07-.16.11-.14-.23.11-.5.08-.4.18-.2a.47.47,0,0,0,.06.15.17.17,0,0,0,.1.06A.2.2,0,0,0,38.34,3.42Z"/><path class="cls-1" d="M39.07,4.68l-.29.18-.19-.28.06-.27.65-.41V3.82l-.12-.68h0a.9.9,0,0,1-.29.16.54.54,0,0,1-.31,0v.09a.2.2,0,0,0,0,.08l-.09.39-.17.72-.21.14,0,.07a.21.21,0,0,1,.13,0,.12.12,0,0,1,.07.07.83.83,0,0,1,.07.13.59.59,0,0,0,.06.14h0l.57-.35Zm-.33-.8.12-.5.12,0,.09.55v.05l-.41.27Z"/><path class="cls-1" d="M32,4h.06a.5.5,0,0,1,.15-.14h-.29Z"/><path class="cls-1" d="M15.34,4l0-.08-.08-.17-.08,0,.07.15,0,.08c.09.2.16.36.23.49a1,1,0,0,0,.17.27l.06,0a1.38,1.38,0,0,1-.14-.24C15.5,4.33,15.43,4.16,15.34,4Z"/><path class="cls-1" d="M17.5,4l-.1-.11h0l-.07-.08-.18-1,.15-.25,0,0,0-.07,0,.07,0,0v0l-.05,0a.1.1,0,0,1-.07,0h-.31l-.1.2,0,.09.06-.11.15.15.14.84L17,3.88l-.15.25L16.66,4l0-.11-.18-1a.67.67,0,0,0-.08-.25l-.07-.08-.06-.08H16.2l0,.07L16,2.86l0,.08.07-.13.14.16.16.91,0,.17-.18.33,0,.07c0-.11.08-.16.12-.17a.17.17,0,0,1,.1.06l.17.15h0l.34-.61,0,0v0h0c0,.09,0,.15,0,.2a.37.37,0,0,0,.05.11l.15.19h0L17.6,4l0,0Z"/><path class="cls-1" d="M40.56,3.6V3.54a.76.76,0,0,1-.19.12h-.17A.31.31,0,0,1,40,3.53a1,1,0,0,1-.14-.22h0a3.34,3.34,0,0,1-.32.33l0,.06a.13.13,0,0,1,.09,0,.16.16,0,0,1,.06.08.34.34,0,0,0,.06.12s0,0,0,0l.06,0a.82.82,0,0,0,.35,0l-.31.33-.32-.08-.21.24,0,.09a.16.16,0,0,1,.08-.08.17.17,0,0,1,.1,0l.13,0L39,5.16v.07s0,0,0,0a.56.56,0,0,1,.17-.09.31.31,0,0,1,.19,0,.22.22,0,0,1,.13.08h0a.27.27,0,0,1,.07.08l0,.07,0,0s0,0,0,0a.18.18,0,0,0,.09,0L40,5.23l0,0h0l.09-.09V5L40,5.11a.5.5,0,0,0-.11-.17.42.42,0,0,0-.16-.09.32.32,0,0,0-.17,0l-.23,0,.39-.44.32.09.21-.26,0-.06a.16.16,0,0,1-.16.07l-.15,0,.34-.36Z"/><path class="cls-1" d="M11.17,5.24l0,0-.3-1L11,3.93l0,0,0,0a0,0,0,0,1,0,0,.14.14,0,0,1,0,.06.08.08,0,0,1,0,0s-.08,0-.17-.11h0l-1.1-1-.07.32.76.67,0,0a.62.62,0,0,1-.43.39l0,.09.08,0,.23.74.09.31-.11.31.06,0,0-.08a.1.1,0,0,1,.05,0,.13.13,0,0,1,.12,0l.13.1a.6.6,0,0,0,.08.08l.06,0a1.13,1.13,0,0,1,.12-.21A1.54,1.54,0,0,1,11,5.51a.59.59,0,0,1,.2-.12h.1l0-.1Zm-.35.31-.34-.15-.06-.21-.28-.91A.57.57,0,0,0,10.33,4l.29.25.29,1,.06.19Z"/><path class="cls-1" d="M12.47,5.05,12.3,4.9l-.27-1h0l.14-.31,0-.07,0,.08,0,.06s0,0,0,0a.16.16,0,0,1-.13-.06.43.43,0,0,1-.13-.17l0,0a.8.8,0,0,1-.07.2,1.18,1.18,0,0,1-.13.18.08.08,0,0,1,0,0,.26.26,0,0,1-.11.07s0-.05,0-.07h-.25a.3.3,0,0,0,.1.14l.36.37a1.31,1.31,0,0,0-.21.36.73.73,0,0,0,0,.44h0a.46.46,0,0,0,.15.27.48.48,0,0,0,.2.14l0,0L12,5.19,12.09,5a.7.7,0,0,0,.06.19v0a.44.44,0,0,0,.08.11l.12.11h0l.1-.24L12.57,5l-.05,0Zm-.56.14,0,.07a.46.46,0,0,1-.16-.07l0,0a.54.54,0,0,1-.13-.22.49.49,0,0,1,.05-.39l.06-.1.16.16V4.52l-.44-.45a.53.53,0,0,0,.23-.19l0,0,.06,0,.12.1.24.9Z"/><path class="cls-1" d="M43.62,4.74a2.54,2.54,0,0,1,.31-.53,2.16,2.16,0,0,1,.27-.33l.11-.1a1.88,1.88,0,0,1,.43-.31A1.23,1.23,0,0,1,45,3.35V3.3a1.88,1.88,0,0,0-.8.45l-.12.12h0a2.17,2.17,0,0,0-.24.29,2.43,2.43,0,0,0-.3.52,3,3,0,0,0-.19.5h.1A2.35,2.35,0,0,1,43.62,4.74Z"/><path class="cls-1" d="M34,3.89c0,.1-.05.27-.07.4l-.09.08a.54.54,0,0,1-.26-.21.92.92,0,0,1-.14-.28h0a.66.66,0,0,1,.11-.56.66.66,0,0,0-.36.56h0a.54.54,0,0,0,.06.31.61.61,0,0,0,.48.4h.07a.6.6,0,0,1,.09-.13c.16-.19.47-.39.47-.42s.12-.12.11-.14Z"/><path class="cls-1" d="M14.23,3.88V3.4l0-.66a.07.07,0,0,0-.06,0l0,1.11,0,.49.07,0Z"/><path class="cls-1" d="M45.12,3.89a.24.24,0,0,1-.12,0,.65.65,0,0,1,0,.13l-.19.41a1.13,1.13,0,0,1-.12.21.53.53,0,0,1-.14.11l0,.09a.9.9,0,0,0,.36-.08.6.6,0,0,0,.23-.29l.21-.6a2.18,2.18,0,0,1,.06,1.29h.32c0-.1.07-.21.1-.31a2.44,2.44,0,0,0,.07-.46,1.72,1.72,0,0,0,0-.39l0-.14-.06-.23,0,0-.58.25Z"/><path class="cls-1" d="M42.91,4.19a.87.87,0,0,1-.31.14.65.65,0,0,1-.31,0,.22.22,0,0,0,0,.08l0,.08-.22.69-.12.4-.23.12,0,.07a.33.33,0,0,1,.14,0,.13.13,0,0,1,.06.07A1.21,1.21,0,0,1,42,6l.05.14,0,0,.59-.3,0-.08-.3.15-.17-.3.08-.25.27-.14L43,5l0-.08-.06-.69Zm-.53,1-.05,0v0l.25-.77.12,0,0,.61Z"/><path class="cls-1" d="M20.76,4h0l.06-.09H20.7A.47.47,0,0,0,20.76,4Z"/><path class="cls-1" d="M27.09,3.27l.06,0h0l0-.7V2.24A1,1,0,0,0,27.15,2l-.06,0a.72.72,0,0,1,0,.19v.33Z"/><path class="cls-1" d="M26.44,3.62a1.44,1.44,0,0,1,.25.18h.09l.15-.16a.68.68,0,0,1,.5-.2l.24,0,0-.07a.17.17,0,0,1-.07-.16l0-.69V2.29A.41.41,0,0,0,27.54,2a1,1,0,0,0-.2-.15l-.09,0a1.81,1.81,0,0,0,.32-.41A1.24,1.24,0,0,0,27.7.81a.81.81,0,0,0,0-.16h0c0-.29-.15-.51-.33-.5S27,.26,27,.26a.45.45,0,0,1-.2-.12A.52.52,0,0,0,26.5,0c-.18,0-.46.25-.47.64h0v0a.64.64,0,0,0,.07.31l0,0A.58.58,0,0,1,26.08.7v0h0a.43.43,0,0,1,.06-.22.18.18,0,0,1,.16-.1c.06,0,.38.24.5.25l0,.06h.12c.08-.15.27-.32.38-.32a.15.15,0,0,1,.15.14,1.1,1.1,0,0,1,0,.18h0V.85a2.25,2.25,0,0,1-.11.68.7.7,0,0,1-.22.29.36.36,0,0,1-.17.07V2a1.11,1.11,0,0,0,.3-.17c.15,0,.18.37.18.37v.33l0,.81s-.15,0-.42.16a1.23,1.23,0,0,0-.28-.23.56.56,0,0,0-.51.06.69.69,0,0,0-.39.54h0a.6.6,0,0,0,0,.19l0,0a.54.54,0,0,1,.05-.21h0a.47.47,0,0,1,.36-.26A.31.31,0,0,1,26.44,3.62Z"/><path class="cls-1" d="M13.61,4.6l-.16-.72-.07-.31.13-.29,0-.06a.41.41,0,0,1-.05.09.1.1,0,0,1-.05,0s-.07,0-.15-.11l-.67-.69-.38-.39-.08.31.07.08.67.68a.61.61,0,0,1-.46.36l0,.09.08.06,0,.14.21.93-.14.29.06.05a.2.2,0,0,1,0-.08.1.1,0,0,1,.05,0,.13.13,0,0,1,.12,0l.12.11,0,0,.06.06h.06s0,0,0,0A.83.83,0,0,1,13.23,5a.77.77,0,0,1,.18-.18.53.53,0,0,1,.21-.11h.1l0-.09Zm-.36.3-.32-.18-.19-.83-.08-.31a.64.64,0,0,0,.22-.27l.27.26.07.31.2.85Z"/><path class="cls-1" d="M35.76,4.19,35.67,4V3.88L35.85,3l.25-.22V2.64l-.06,0a.09.09,0,0,1-.06,0l0,0s-.07-.07-.11-.21l0-.09h-.05l-.11.1-.21.19v.09l.09-.07.09.19-.15.84-.1.1-.25.2L35,3.88h0l.2-1.1a.59.59,0,0,0,0-.23h0v0l-.06-.19h0l-.26.23h0l-.07.06,0,.09.11-.1.07.2-.19,1.08h0l-.28.25,0,.07a.27.27,0,0,1,.18-.11.14.14,0,0,1,.08.09,1.86,1.86,0,0,1,.1.2h.05l.56-.47a1.85,1.85,0,0,0,0,.23.5.5,0,0,0,0,.12l.07.23h0l.32-.3,0-.06Z"/><path class="cls-1" d="M33,2.3a.09.09,0,0,1-.07,0,.29.29,0,0,1-.11-.11L32.65,2h0a.65.65,0,0,1-.35.2.87.87,0,0,1-.36,0s0,0,0,0a.19.19,0,0,0,0,.07l.05.06,0,.13-.11,1-.21.19,0,.07,0,0,.05,0h0a.49.49,0,0,1,.14.18h.32a.72.72,0,0,1,.2-.09.67.67,0,0,1,.28,0s.07,0,.08,0a.19.19,0,0,0-.07-.14l.13-1v0l.21-.21,0-.08A.2.2,0,0,1,33,2.3Zm-.47,1.38a.42.42,0,0,0-.18.08l-.25-.29.11-.92,0-.2.18-.07.24.27h0Z"/><path class="cls-1" d="M11.13,3.88h.25a.34.34,0,0,0-.05-.22l-.07-.06a.09.09,0,0,0-.07,0,.11.11,0,0,0-.08.08.32.32,0,0,0,0,.17Z"/><path class="cls-1" d="M33.65,3.83a.09.09,0,0,1,0,0c0,.08,0,.2,0,.2l.07,0s0-.15,0-.25h0a.43.43,0,0,1,0,0l0-.64h-.06Z"/><polygon class="cls-1" points="14.67 2.53 14.67 2.55 14.66 2.69 14.88 3.14 14.95 3.13 14.68 2.55 14.67 2.53"/><path class="cls-1" d="M21,3.59l0-.08-.06.08a.43.43,0,0,1-.17-.36l-.06-.69V2.39l.2-.3,0-.08c0,.1-.09.15-.13.15a.14.14,0,0,1-.09-.08.81.81,0,0,1-.12-.18h-.05L20,2.54l0,0v0h0a1.93,1.93,0,0,0-.06-.36L19.81,2h-.06l-.24.39,0,.07.07-.11.14.2v0h0l.09,1-.2.31v0l.05.06a.36.36,0,0,1,0-.09v0a.1.1,0,0,1,.07,0,.1.1,0,0,1,.09.06h0A.76.76,0,0,1,20,4h.05l.09-.15h0l.16-.25,0-.06-.08.09-.14-.14L20,2.75l.12-.2.18-.29.15.18v.1l.08,1a1,1,0,0,0,.06.23l.07.1h.17Z"/><path class="cls-1" d="M18.24,3.89l0,0,0,0-.12-.11-.18-1.23v0l.2,0,0-.36,0,0a.21.21,0,0,1-.11.13h-.13l-.05-.4-.09-.58-.19.28.05.3.06.43-.15,0,0,.28v.08l0,0a.11.11,0,0,1,.06-.1h.12v0l.18,1.26-.05.07-.14.22,0,.06a.22.22,0,0,1,.11-.1s.13.07.27.22h0l.2-.39,0-.07,0-.06Z"/><path class="cls-1" d="M28.64,3.25l-.25.23-.24-.24V3l.45-.43.11-.1V2.36l-.2-.54-.05-.1h0a.52.52,0,0,1-.11.1.58.58,0,0,1-.15.11.58.58,0,0,1-.29.09.19.19,0,0,0,0,.08.18.18,0,0,0,.05.07v.38l0,.76-.18.18,0,.07a.2.2,0,0,1,.12-.08.1.1,0,0,1,.08,0l.18.24h0l.49-.45Zm-.47-.7,0-.54.1-.07.22.57,0,0-.32.3Z"/><path class="cls-1" d="M26.1,3V3.1h0v0l.06,0V2.93l.06,0a.1.1,0,0,0,0-.08.85.85,0,0,0,0-.23V2.32h-.06v.27a1.09,1.09,0,0,1,0,.26A.22.22,0,0,1,26.1,3Z"/><polygon class="cls-1" points="8.89 3.57 9.09 3.73 9.13 3.72 9.26 3.28 9.2 3.21 9.16 3.35 8.96 3.19 8.92 3.21 8.79 3.66 8.85 3.71 8.89 3.57"/><path class="cls-1" d="M37,4.42l-.1-.21L37,3.88l.12-.7L37.34,3V2.87l-.06.06-.06,0-.05,0a.18.18,0,0,1-.09-.12.65.65,0,0,1,0-.21h0a.75.75,0,0,1-.16.15.72.72,0,0,1-.19.11.29.29,0,0,1-.18,0,.3.3,0,0,0,.08-.16.17.17,0,0,0,0-.1.36.36,0,0,0,0-.09.05.05,0,0,0-.05,0,.1.1,0,0,0-.11.05.39.39,0,0,0-.06.15.39.39,0,0,0,0,.21l.17.47a1.2,1.2,0,0,0-.34.25.62.62,0,0,0-.14.18.83.83,0,0,0-.06.21.55.55,0,0,0,0,.31.39.39,0,0,0,.13.2h.05l.53-.4a1.64,1.64,0,0,0,0,.23.28.28,0,0,0,0,.13l.06.15h0l.33-.31V4.34Zm-.27-.54,0,.21-.33.26a.49.49,0,0,1-.14-.18.46.46,0,0,1,0-.26,0,0,0,0,1,0,0,.44.44,0,0,1,.2-.3h0l.09-.06.08.21,0-.07-.2-.59a.52.52,0,0,0,.34-.1l.1.2Z"/><polygon class="cls-1" points="37.22 1.82 37.23 1.81 37.25 1.71 36.92 1.65 36.86 1.82 36.66 2.34 36.7 2.35 37.22 1.82"/><path class="cls-1" d="M22.2,3.46a.2.2,0,0,0-.08-.12l-.06-.79,0-.3L22.21,2l0-.07a.28.28,0,0,1-.06.09.1.1,0,0,1-.07,0A.22.22,0,0,1,21.91,2a.93.93,0,0,1-.13-.15l0,0H21.7v0a.79.79,0,0,1-.29.25,1.12,1.12,0,0,1-.35.12s0,0,0,0a.11.11,0,0,0,0,.08l.06,0v.2l.07.91L21,3.68l.05.06,0,0a.1.1,0,0,1,0-.05l0,0s.12.08.27.25h.08l.11-.15a.8.8,0,0,1,.21-.15.77.77,0,0,1,.26-.07C22.18,3.51,22.21,3.49,22.2,3.46Zm-.47.13-.3-.24-.05-.8,0-.33.17-.1.3.23v.2l.07.92A.43.43,0,0,0,21.73,3.59Z"/><path class="cls-1" d="M23.61,3.33l-.1.11-.1-.13,0-.76V2.41l.27-.36.16.16v.34l0,.85s0,.08,0,.13l0,.1.06.09.05.06h0l.26-.33a.31.31,0,0,0,.06.13.42.42,0,0,0,.17.18h.05L25,3.27a1.64,1.64,0,0,0,0,.22.31.31,0,0,0,.06.13l.08.13h0l.26-.36,0-.06-.07.08-.13-.18v-1l.23-.28,0-.07-.06.06L25.31,2l0,0a.14.14,0,0,1-.12-.09l0,0h-.19l0,0a.8.8,0,0,1-.17.15.28.28,0,0,1-.18.06.27.27,0,0,0,.06-.17s0-.06,0-.08h-.25a.36.36,0,0,0,.06.3l.26.43a1.22,1.22,0,0,0-.3.3.73.73,0,0,0-.11.43v.06l-.1.13-.1-.14a.41.41,0,0,1,0-.16v-1l.2-.24,0-.08A.22.22,0,0,1,24,2a.16.16,0,0,1-.1-.08.21.21,0,0,0,0-.06.3.3,0,0,1,0-.1h-.05l-.08.1-.35.46a.74.74,0,0,0-.06-.36l-.06-.1-.05-.09h-.05l-.08.09-.37.45a.83.83,0,0,0,0-.22.33.33,0,0,0-.05-.16l0-.07-.06-.08H22.5l-.06.08-.17.24,0,.08,0,0a0,0,0,0,1,0,0s0,0,0,0a.07.07,0,0,1,.05,0,.19.19,0,0,1,.05.1.35.35,0,0,1,0,.14v.95l-.21.28,0,.07.07-.08a.1.1,0,0,1,.06,0,.22.22,0,0,1,.09.1.78.78,0,0,1,.11.18h0l.3-.38,0-.08-.09.08-.12-.14V2.4L23,2.05a.44.44,0,0,1,.15.36v1l-.1.14.1.11a1.15,1.15,0,0,1,.14.17h0l.31-.4Zm1-.64.08-.07.12.19,0-.07-.11-.19-.21-.35A.53.53,0,0,0,24.85,2l.14.18v.93l-.27.33a.65.65,0,0,1-.17-.16.51.51,0,0,1-.07-.24A.57.57,0,0,1,24.63,2.69Z"/><polygon class="cls-1" points="18.64 1.82 18.97 1.18 18.96 1.08 18.63 1.12 18.58 1.82 18.57 1.86 18.62 1.86 18.64 1.82"/><path class="cls-1" d="M16.08,4.27A.2.2,0,0,1,16,4.18,1.08,1.08,0,0,1,15.88,4l-.05-.11L15.2,2.56l-.34-.73h0a5.87,5.87,0,0,1-.24-.63h0v.18a.34.34,0,0,0-.29-.11.29.29,0,0,0-.14.08.54.54,0,0,0-.1.16,1,1,0,0,0-.06.22s0,.06,0,.09a1,1,0,0,1,0,.17l0,0a1.08,1.08,0,0,1,.08-.19l0,0a.21.21,0,0,1,.15-.09.25.25,0,0,1,.27.08v0l0,.41a.24.24,0,0,0-.2,0,.25.25,0,0,0-.19.2.75.75,0,0,0,0,.16,1,1,0,0,0,0,.25l0,0a.48.48,0,0,1,.05-.17.15.15,0,0,1,.11-.08c.08,0,.15,0,.21.13l-.06,1.18,0,.51a.47.47,0,0,0-.23.19A.7.7,0,0,0,14,5l.05.14a2.4,2.4,0,0,1,.11-.23.35.35,0,0,1,.19-.1.43.43,0,0,1,.25,0,.72.72,0,0,1,.21.12l.07,0,.3-.57,0,0L15,4.49a.54.54,0,0,0-.52-.11l0-.49V3.74l.88-.18s0,.13.14.33h0c.08.2.16.36.22.49a1.27,1.27,0,0,0,.18.27H16l0-.05,0-.07.15-.31-.05-.06Zm-1.57-.92,0-.8,0-.7.33.7.3.65Z"/><path class="cls-1" d="M30,2.28,30.2,2l0-.09a.18.18,0,0,1-.15.12A.11.11,0,0,1,29.94,2l-.07-.15s0,0,0-.05H29.8l-.05.05-.5.55a1.55,1.55,0,0,0,0-.43l-.06-.12,0-.1h-.06l-.09.1-.2.24,0,.08.09-.1.11.21,0,.3L29,3.32l-.26.29,0,.07a.36.36,0,0,1,.07-.1.13.13,0,0,1,.07,0,.14.14,0,0,1,.09.08.56.56,0,0,1,.09.17h.05l.31-.35,0-.07-.09.08-.12-.16,0-.74v0l.37-.44.12.2,0,.27-.06.84a.65.65,0,0,0,0,.24,2.26,2.26,0,0,0,.11.22h0l.29-.33,0-.09L30,3.5a.43.43,0,0,1-.11-.38l0-.57Z"/><path class="cls-1" d="M16.93,2.35h-.05l-.1.19h.31A1,1,0,0,1,16.93,2.35Z"/><path class="cls-1" d="M19.43,3.59l-.13-1v0l.16-.25-.05-.07a.21.21,0,0,1-.06.1.1.1,0,0,1-.06.05.3.3,0,0,1-.13-.09L19,2.07h0a.78.78,0,0,1-.29.28.85.85,0,0,1-.34.14s0,0,0,0a0,0,0,0,0,0,0h.3v0l.16-.1.22.14.09.07.14,1.12a.38.38,0,0,0-.16.12l-.31-.22-.13-1.09h-.31l0,0a.1.1,0,0,0,.06.05l.13,1.11-.09.13L18.37,4l.05,0,0,0a.1.1,0,0,1,0,0l0,0s.14.08.31.24h.06a.75.75,0,0,1,.25-.28l.06,0a.79.79,0,0,1,.26-.08q.08,0,.06-.06A.14.14,0,0,0,19.43,3.59Z"/><path class="cls-1" d="M26.25,2.18A.56.56,0,0,1,26.31,2a.23.23,0,0,1,.16,0h.05l0,.61v0a1.09,1.09,0,0,1,0,.26.23.23,0,0,1-.11.16v.1h0v0a.78.78,0,0,0,.27-.24.57.57,0,0,0,.11-.33v0l0-.71h0l0-.66c0-.1.05-.4,0-.38a.5.5,0,0,1,0-.13h-.11a1.82,1.82,0,0,0-.21.47v.45a.35.35,0,0,0-.27.17l0,.08h0a1.49,1.49,0,0,0,0,.36Z"/><path class="cls-1" d="M14.31,1.85a.06.06,0,0,0-.07,0v.24h.06Z"/><path class="cls-1" d="M30.71,3.58a.35.35,0,0,1-.1-.29l.05-.74,0-.25L30.91,2l0-.09a.2.2,0,0,1-.12.1A.2.2,0,0,1,30.68,2l-.08-.14v0h0l0,0-.31.34,0,.06.09-.1.08.15v.27l-.08,1a.45.45,0,0,0,0,.16l.07.16h.08l.32-.35,0-.07Z"/><path class="cls-1" d="M31.6,3.49l-.12.13-.12-.17.08-.9,0-.38.2,0,.11-.34v0h0a.16.16,0,0,1-.13.08h-.13V1.82L31.58.9l-.25.23-.06.69v.05h-.14L31,2.2l0,0a.12.12,0,0,1,.1-.09h.09l0,.4-.08.89-.25.24,0,.07A.22.22,0,0,1,31,3.67s.1.07.18.21l0,.07h0l.07-.07.28-.32Z"/><path class="cls-1" d="M34,1.82l0-.43s0-.07,0-.1l-.08,0a.5.5,0,0,1,0,.12l-.05.44-.06.52a.11.11,0,0,1,.08,0Z"/><path class="cls-1" d="M33.76,1.65V1.56a.54.54,0,0,1-.21-.08c-.05,0-.06-.12-.05-.25A.52.52,0,0,1,33.58,1a.12.12,0,0,1,.11-.08l.09,0,.11.08a.57.57,0,0,0,.26.12.22.22,0,0,0,.14,0,2.38,2.38,0,0,0,0,.26l-.05.42-.08.65H34a.12.12,0,0,0-.14.08l0,.05a1.82,1.82,0,0,0-.11.46h.06a.58.58,0,0,1,.06-.17.09.09,0,0,1,.06-.06h.17l-.13,1v0h.36l.17-1.32.08-.73,0-.12.06-.59c0-.18.06-.29.12-.32V.7a.39.39,0,0,1-.28.12.86.86,0,0,1-.28-.11l-.1-.06a.21.21,0,0,0-.1,0,.29.29,0,0,0-.18,0h0l0,0a.59.59,0,0,0-.19.22.91.91,0,0,0-.1.33C33.43,1.48,33.53,1.62,33.76,1.65Z"/><path class="cls-1" d="M34.3,3.88h0Z"/><path class="cls-1" d="M26.36,1.12a1.39,1.39,0,0,1,.17-.44l0,0a1.37,1.37,0,0,0-.21.46v.39l.07,0Z"/><polygon class="cls-1" points="30.49 1.1 30.61 1.33 30.65 1.33 30.94 0.97 30.91 0.89 30.82 1 30.69 0.78 30.65 0.78 30.36 1.15 30.39 1.21 30.49 1.1"/><path class="cls-1" d="M24.59,1.79a.18.18,0,0,0-.05-.07.09.09,0,0,0-.06,0,.13.13,0,0,0-.1.06l0,.07h.25A0,0,0,0,0,24.59,1.79Z"/><path class="cls-1" d="M27.05,1.54a.6.6,0,0,1-.14.21.49.49,0,0,0,.22-.25,2.39,2.39,0,0,0,.11-.65V.65c0-.06,0-.11,0-.16a.08.08,0,0,0,0,0l-.06,0a.9.9,0,0,1,0,.18,1.33,1.33,0,0,1,0,.2A2.26,2.26,0,0,1,27.05,1.54Z"/><path class="cls-1" d="M25.07,1.68H25a.42.42,0,0,1-.09.14h.2A.35.35,0,0,1,25.07,1.68Z"/><rect class="cls-1" x="156.6" y="49.82" width="74.02" height="3.44"/></g></g></svg>