<svg width="32" height="32" viewBox="0 0 32 32" fill="none" xmlns="http://www.w3.org/2000/svg">
<g clip-path="url(#clip0_753_5363)">
<path d="M8.15405 3.33359C6.01309 3.31629 3.9526 4.14846 2.42415 5.64773C0.895701 7.147 0.0239672 9.19107 0 11.332C0.0239652 13.4723 0.895909 15.5157 2.42455 17.0139C3.95319 18.5121 6.0137 19.3429 8.15405 19.3238C10.2933 19.3411 12.3521 18.5096 13.8794 17.0116C15.4066 15.5135 16.2776 13.4711 16.3016 11.332C16.2793 9.19166 15.409 7.14758 13.8816 5.64813C12.3542 4.14868 10.2944 3.3163 8.15405 3.33359ZM12.4678 11.812C12.4841 11.878 12.4841 11.947 12.4678 12.0131C12.443 12.0797 12.403 12.1396 12.3511 12.1882C12.3013 12.2387 12.2417 12.2784 12.1759 12.305C12.1102 12.3319 12.0391 12.343 11.9683 12.3374H9.23736V15.01C9.23706 15.0789 9.22386 15.1471 9.19844 15.2111C9.17189 15.2769 9.13215 15.3365 9.08167 15.3863C9.03309 15.4382 8.97314 15.4782 8.90653 15.503C8.84001 15.5269 8.76957 15.5379 8.69895 15.5355H7.60914C7.46919 15.5355 7.33486 15.4803 7.23529 15.382C7.13572 15.2836 7.07892 15.15 7.07722 15.01V12.3374H4.37218C4.22951 12.3358 4.09276 12.2801 3.98945 12.1817C3.88792 12.0826 3.82964 11.9474 3.82728 11.8055V10.7611C3.8286 10.6203 3.8844 10.4854 3.98296 10.3849C4.08463 10.288 4.21879 10.2324 4.3592 10.2292H7.09019V7.53711C7.09205 7.46567 7.10746 7.39522 7.1356 7.32953C7.19281 7.2028 7.2943 7.10131 7.42102 7.04411C7.48715 7.01818 7.55758 7.00498 7.62861 7.00518H8.70543C8.77646 7.00498 8.84689 7.01818 8.91301 7.04411C8.97963 7.06898 9.03957 7.10895 9.08816 7.16087C9.13866 7.21202 9.18032 7.27121 9.21141 7.33602C9.23733 7.40214 9.25054 7.47257 9.25033 7.5436V10.2097H11.9489C12.0916 10.2167 12.2273 10.2742 12.3316 10.3719C12.4302 10.4725 12.486 10.6073 12.4873 10.7481L12.4678 11.812Z" fill="#42CEA6"/>
<path d="M29.3467 15.6587H25.1043H24.0599C23.7355 15.6587 23.3268 15.7171 23.3268 16.1128V21.4969C23.3268 21.6036 23.2845 21.7059 23.209 21.7813C23.1336 21.8567 23.0313 21.8991 22.9247 21.8991C22.818 21.8991 22.7157 21.8567 22.6403 21.7813C22.5648 21.7059 22.5225 21.6036 22.5225 21.4969V11.6238C22.5191 11.4901 22.4894 11.3583 22.4351 11.236C22.3808 11.1137 22.3029 11.0034 22.2059 10.9112C22.1089 10.819 21.9947 10.7469 21.8698 10.6989C21.745 10.6508 21.6118 10.6279 21.4781 10.6314H17.1059C17.1059 10.8649 17.1448 11.0919 17.1448 11.3319C17.1191 13.6936 16.1585 15.9489 14.4733 17.6037C12.7881 19.2585 10.5157 20.1779 8.15396 20.1606C7.08002 20.1612 6.01459 19.9701 5.00781 19.5963V24.2344C5.01462 24.5034 5.12759 24.7588 5.32206 24.9447C5.51653 25.1307 5.77669 25.2321 6.04572 25.2269H7.2912C7.28809 25.2787 7.28809 25.3307 7.2912 25.3826C7.28812 26.0674 7.53942 26.729 7.99639 27.239C8.45336 27.7491 9.08343 28.0713 9.76446 28.1432C10.4455 28.2151 11.129 28.0315 11.6824 27.6282C12.2358 27.2248 12.6197 26.6303 12.7597 25.9599C14.0895 25.9599 15.6204 25.9599 15.6269 25.9599H24.3842C24.5171 26.5795 24.8585 27.1348 25.3514 27.5332C25.8442 27.9315 26.4588 28.1488 27.0925 28.1488C27.7262 28.1488 28.3407 27.9315 28.8336 27.5332C29.3265 27.1348 29.6678 26.5795 29.8008 25.9599H30.6116C30.9793 25.9582 31.3314 25.8114 31.5914 25.5514C31.8513 25.2915 31.9981 24.9394 31.9998 24.5717C31.9998 23.1187 31.9998 21.6721 31.9998 20.2125V19.6027C32.0063 17.7734 31.8701 15.6587 29.3467 15.6587ZM10.0417 27.0627C9.70725 27.064 9.38002 26.9658 9.10153 26.7807C8.82305 26.5956 8.60587 26.3318 8.47761 26.023C8.34935 25.7142 8.31579 25.3742 8.38119 25.0463C8.44659 24.7183 8.60801 24.4172 8.84492 24.1812C9.08184 23.9452 9.38356 23.785 9.71176 23.7208C10.04 23.6567 10.3798 23.6916 10.6881 23.821C10.9965 23.9505 11.2594 24.1687 11.4434 24.4479C11.6274 24.7271 11.7243 25.0547 11.7218 25.3891C11.72 25.8335 11.5423 26.2592 11.2274 26.5729C10.9125 26.8866 10.4861 27.0627 10.0417 27.0627ZM27.0698 27.0627C26.7357 27.0627 26.4091 26.9634 26.1314 26.7775C25.8538 26.5916 25.6376 26.3274 25.5104 26.0185C25.3831 25.7096 25.3505 25.3698 25.4166 25.0423C25.4827 24.7147 25.6447 24.4142 25.8818 24.1789C26.119 23.9435 26.4208 23.7839 26.7488 23.7203C27.0768 23.6567 27.4163 23.692 27.7243 23.8216C28.0322 23.9513 28.2947 24.1695 28.4785 24.4485C28.6622 24.7276 28.759 25.055 28.7564 25.3891C28.7555 25.6097 28.7112 25.828 28.626 26.0315C28.5408 26.235 28.4163 26.4198 28.2597 26.5752C28.1031 26.7306 27.9174 26.8536 27.7132 26.9373C27.5091 27.0209 27.2904 27.0635 27.0698 27.0627ZM31.2019 21.3348C31.2019 21.8926 28.4645 19.9984 25.7919 19.6936C25.6035 19.6741 25.4295 19.5836 25.3053 19.4406C25.1756 19.299 25.1038 19.1137 25.1043 18.9216V16.4371H25.3053C26.1292 16.4371 28.0363 16.4371 28.8667 16.4371C31.0009 16.4371 31.2019 17.248 31.2019 20.2839V21.3348Z" fill="#2C2C9F"/>
</g>
<defs>
<clipPath id="clip0_753_5363">
<rect width="32" height="32" fill="white"/>
</clipPath>
</defs>
</svg>
